<mxfile host="app.diagrams.net" modified="2021-08-12T18:52:58.068Z" agent="5.0 (Windows NT 10.0; Win64; x64) AppleWebKit/537.36 (KHTML, like Gecko) Chrome/92.0.4515.131 Safari/537.36" etag="F2X4sh703dN8VsAKgyhK" version="14.9.3" type="github">
  <diagram id="wnSIv8MwVNqltcmqMLPC" name="Page-1">
    <mxGraphModel dx="1550" dy="835" grid="1" gridSize="10" guides="1" tooltips="1" connect="1" arrows="1" fold="1" page="1" pageScale="1" pageWidth="827" pageHeight="1169" math="0" shadow="0">
      <root>
        <mxCell id="0" />
        <mxCell id="1" parent="0" />
        <mxCell id="GWw9JLShdC8Tl8wu_RAZ-9" value="" style="rounded=0;whiteSpace=wrap;html=1;" parent="1" vertex="1">
          <mxGeometry x="30" y="130" width="280" height="240" as="geometry" />
        </mxCell>
        <mxCell id="GWw9JLShdC8Tl8wu_RAZ-10" value="" style="rounded=0;whiteSpace=wrap;html=1;fillColor=#ffe6cc;strokeColor=#d79b00;" parent="1" vertex="1">
          <mxGeometry x="30" y="130" width="210" height="240" as="geometry" />
        </mxCell>
        <mxCell id="GWw9JLShdC8Tl8wu_RAZ-12" value="" style="rounded=0;whiteSpace=wrap;html=1;fillColor=#dae8fc;strokeColor=#6c8ebf;" parent="1" vertex="1">
          <mxGeometry x="30" y="130" width="280" height="190" as="geometry" />
        </mxCell>
        <mxCell id="GWw9JLShdC8Tl8wu_RAZ-13" value="" style="rounded=0;whiteSpace=wrap;html=1;fillColor=#e1d5e7;strokeColor=#9673a6;" parent="1" vertex="1">
          <mxGeometry x="30" y="130" width="210" height="190" as="geometry" />
        </mxCell>
        <mxCell id="GWw9JLShdC8Tl8wu_RAZ-15" value="" style="rounded=0;whiteSpace=wrap;html=1;" parent="1" vertex="1">
          <mxGeometry x="454" y="170" width="280" height="240" as="geometry" />
        </mxCell>
        <mxCell id="GWw9JLShdC8Tl8wu_RAZ-16" value="" style="rounded=0;whiteSpace=wrap;html=1;fillColor=#e1d5e7;strokeColor=#9673a6;" parent="1" vertex="1">
          <mxGeometry x="534" y="250" width="160" height="160" as="geometry" />
        </mxCell>
        <mxCell id="GWw9JLShdC8Tl8wu_RAZ-31" value="" style="rounded=0;whiteSpace=wrap;html=1;dashed=1;" parent="1" vertex="1">
          <mxGeometry x="414" y="130" width="320" height="40" as="geometry" />
        </mxCell>
        <mxCell id="GWw9JLShdC8Tl8wu_RAZ-32" value="" style="rounded=0;whiteSpace=wrap;html=1;dashed=1;" parent="1" vertex="1">
          <mxGeometry x="414" y="130" width="40" height="280" as="geometry" />
        </mxCell>
        <mxCell id="GWw9JLShdC8Tl8wu_RAZ-33" value="6,6" style="text;html=1;align=center;verticalAlign=middle;resizable=0;points=[];autosize=1;strokeColor=none;" parent="1" vertex="1">
          <mxGeometry x="678" y="420" width="30" height="20" as="geometry" />
        </mxCell>
        <mxCell id="GWw9JLShdC8Tl8wu_RAZ-34" value="k = 6 + 1 -3, 7 + 1 - 3, = 4" style="text;html=1;align=center;verticalAlign=middle;resizable=0;points=[];autosize=1;strokeColor=none;" parent="1" vertex="1">
          <mxGeometry x="479" y="510" width="150" height="20" as="geometry" />
        </mxCell>
        <mxCell id="GWw9JLShdC8Tl8wu_RAZ-35" value="3,3" style="text;html=1;align=center;verticalAlign=middle;resizable=0;points=[];autosize=1;strokeColor=none;" parent="1" vertex="1">
          <mxGeometry x="529" y="250" width="30" height="20" as="geometry" />
        </mxCell>
        <mxCell id="GWw9JLShdC8Tl8wu_RAZ-36" value="nr = 6, nc= 7" style="text;html=1;align=center;verticalAlign=middle;resizable=0;points=[];autosize=1;strokeColor=none;" parent="1" vertex="1">
          <mxGeometry x="454" y="460" width="80" height="20" as="geometry" />
        </mxCell>
        <mxCell id="GWw9JLShdC8Tl8wu_RAZ-38" value="6,7" style="text;html=1;align=center;verticalAlign=middle;resizable=0;points=[];autosize=1;strokeColor=none;" parent="1" vertex="1">
          <mxGeometry x="729" y="420" width="30" height="20" as="geometry" />
        </mxCell>
        <mxCell id="_K0BIjXZIAGodwV6w2R7-22" value="" style="shape=table;startSize=0;container=1;collapsible=0;childLayout=tableLayout;" vertex="1" parent="1">
          <mxGeometry x="40" y="600" width="180" height="180" as="geometry" />
        </mxCell>
        <mxCell id="_K0BIjXZIAGodwV6w2R7-23" value="" style="shape=partialRectangle;collapsible=0;dropTarget=0;pointerEvents=0;fillColor=none;top=0;left=0;bottom=0;right=0;points=[[0,0.5],[1,0.5]];portConstraint=eastwest;" vertex="1" parent="_K0BIjXZIAGodwV6w2R7-22">
          <mxGeometry width="180" height="60" as="geometry" />
        </mxCell>
        <mxCell id="_K0BIjXZIAGodwV6w2R7-24" value="" style="shape=partialRectangle;html=1;whiteSpace=wrap;connectable=0;overflow=hidden;fillColor=none;top=0;left=0;bottom=0;right=0;pointerEvents=1;" vertex="1" parent="_K0BIjXZIAGodwV6w2R7-23">
          <mxGeometry width="60" height="60" as="geometry" />
        </mxCell>
        <mxCell id="_K0BIjXZIAGodwV6w2R7-25" value="" style="shape=partialRectangle;html=1;whiteSpace=wrap;connectable=0;overflow=hidden;fillColor=#dae8fc;top=0;left=0;bottom=0;right=0;pointerEvents=1;strokeColor=#6c8ebf;" vertex="1" parent="_K0BIjXZIAGodwV6w2R7-23">
          <mxGeometry x="60" width="60" height="60" as="geometry" />
        </mxCell>
        <mxCell id="_K0BIjXZIAGodwV6w2R7-26" value="" style="shape=partialRectangle;html=1;whiteSpace=wrap;connectable=0;overflow=hidden;fillColor=#dae8fc;top=0;left=0;bottom=0;right=0;pointerEvents=1;strokeColor=#6c8ebf;" vertex="1" parent="_K0BIjXZIAGodwV6w2R7-23">
          <mxGeometry x="120" width="60" height="60" as="geometry" />
        </mxCell>
        <mxCell id="_K0BIjXZIAGodwV6w2R7-27" value="" style="shape=partialRectangle;collapsible=0;dropTarget=0;pointerEvents=0;fillColor=none;top=0;left=0;bottom=0;right=0;points=[[0,0.5],[1,0.5]];portConstraint=eastwest;" vertex="1" parent="_K0BIjXZIAGodwV6w2R7-22">
          <mxGeometry y="60" width="180" height="60" as="geometry" />
        </mxCell>
        <mxCell id="_K0BIjXZIAGodwV6w2R7-28" value="" style="shape=partialRectangle;html=1;whiteSpace=wrap;connectable=0;overflow=hidden;fillColor=none;top=0;left=0;bottom=0;right=0;pointerEvents=1;" vertex="1" parent="_K0BIjXZIAGodwV6w2R7-27">
          <mxGeometry width="60" height="60" as="geometry" />
        </mxCell>
        <mxCell id="_K0BIjXZIAGodwV6w2R7-29" value="" style="shape=partialRectangle;html=1;whiteSpace=wrap;connectable=0;overflow=hidden;fillColor=#dae8fc;top=0;left=0;bottom=0;right=0;pointerEvents=1;strokeColor=#6c8ebf;" vertex="1" parent="_K0BIjXZIAGodwV6w2R7-27">
          <mxGeometry x="60" width="60" height="60" as="geometry" />
        </mxCell>
        <mxCell id="_K0BIjXZIAGodwV6w2R7-30" value="" style="shape=partialRectangle;html=1;whiteSpace=wrap;connectable=0;overflow=hidden;fillColor=#dae8fc;top=0;left=0;bottom=0;right=0;pointerEvents=1;strokeColor=#6c8ebf;" vertex="1" parent="_K0BIjXZIAGodwV6w2R7-27">
          <mxGeometry x="120" width="60" height="60" as="geometry" />
        </mxCell>
        <mxCell id="_K0BIjXZIAGodwV6w2R7-31" value="" style="shape=partialRectangle;collapsible=0;dropTarget=0;pointerEvents=0;fillColor=none;top=0;left=0;bottom=0;right=0;points=[[0,0.5],[1,0.5]];portConstraint=eastwest;" vertex="1" parent="_K0BIjXZIAGodwV6w2R7-22">
          <mxGeometry y="120" width="180" height="60" as="geometry" />
        </mxCell>
        <mxCell id="_K0BIjXZIAGodwV6w2R7-32" value="" style="shape=partialRectangle;html=1;whiteSpace=wrap;connectable=0;overflow=hidden;fillColor=none;top=0;left=0;bottom=0;right=0;pointerEvents=1;" vertex="1" parent="_K0BIjXZIAGodwV6w2R7-31">
          <mxGeometry width="60" height="60" as="geometry" />
        </mxCell>
        <mxCell id="_K0BIjXZIAGodwV6w2R7-33" value="" style="shape=partialRectangle;html=1;whiteSpace=wrap;connectable=0;overflow=hidden;fillColor=none;top=0;left=0;bottom=0;right=0;pointerEvents=1;" vertex="1" parent="_K0BIjXZIAGodwV6w2R7-31">
          <mxGeometry x="60" width="60" height="60" as="geometry" />
        </mxCell>
        <mxCell id="_K0BIjXZIAGodwV6w2R7-34" value="1" style="shape=partialRectangle;html=1;whiteSpace=wrap;connectable=0;overflow=hidden;fillColor=none;top=0;left=0;bottom=0;right=0;pointerEvents=1;" vertex="1" parent="_K0BIjXZIAGodwV6w2R7-31">
          <mxGeometry x="120" width="60" height="60" as="geometry" />
        </mxCell>
        <mxCell id="_K0BIjXZIAGodwV6w2R7-35" value="" style="shape=table;startSize=0;container=1;collapsible=0;childLayout=tableLayout;" vertex="1" parent="1">
          <mxGeometry x="234" y="600" width="180" height="180" as="geometry" />
        </mxCell>
        <mxCell id="_K0BIjXZIAGodwV6w2R7-36" value="" style="shape=partialRectangle;collapsible=0;dropTarget=0;pointerEvents=0;fillColor=none;top=0;left=0;bottom=0;right=0;points=[[0,0.5],[1,0.5]];portConstraint=eastwest;" vertex="1" parent="_K0BIjXZIAGodwV6w2R7-35">
          <mxGeometry width="180" height="60" as="geometry" />
        </mxCell>
        <mxCell id="_K0BIjXZIAGodwV6w2R7-37" value="" style="shape=partialRectangle;html=1;whiteSpace=wrap;connectable=0;overflow=hidden;top=0;left=0;bottom=0;right=0;pointerEvents=1;" vertex="1" parent="_K0BIjXZIAGodwV6w2R7-36">
          <mxGeometry width="60" height="60" as="geometry" />
        </mxCell>
        <mxCell id="_K0BIjXZIAGodwV6w2R7-38" value="" style="shape=partialRectangle;html=1;whiteSpace=wrap;connectable=0;overflow=hidden;top=0;left=0;bottom=0;right=0;pointerEvents=1;" vertex="1" parent="_K0BIjXZIAGodwV6w2R7-36">
          <mxGeometry x="60" width="60" height="60" as="geometry" />
        </mxCell>
        <mxCell id="_K0BIjXZIAGodwV6w2R7-39" value="" style="shape=partialRectangle;html=1;whiteSpace=wrap;connectable=0;overflow=hidden;top=0;left=0;bottom=0;right=0;pointerEvents=1;" vertex="1" parent="_K0BIjXZIAGodwV6w2R7-36">
          <mxGeometry x="120" width="60" height="60" as="geometry" />
        </mxCell>
        <mxCell id="_K0BIjXZIAGodwV6w2R7-40" value="" style="shape=partialRectangle;collapsible=0;dropTarget=0;pointerEvents=0;fillColor=none;top=0;left=0;bottom=0;right=0;points=[[0,0.5],[1,0.5]];portConstraint=eastwest;" vertex="1" parent="_K0BIjXZIAGodwV6w2R7-35">
          <mxGeometry y="60" width="180" height="60" as="geometry" />
        </mxCell>
        <mxCell id="_K0BIjXZIAGodwV6w2R7-41" value="" style="shape=partialRectangle;html=1;whiteSpace=wrap;connectable=0;overflow=hidden;top=0;left=0;bottom=0;right=0;pointerEvents=1;fillColor=#d5e8d4;strokeColor=#82b366;" vertex="1" parent="_K0BIjXZIAGodwV6w2R7-40">
          <mxGeometry width="60" height="60" as="geometry" />
        </mxCell>
        <mxCell id="_K0BIjXZIAGodwV6w2R7-42" value="" style="shape=partialRectangle;html=1;whiteSpace=wrap;connectable=0;overflow=hidden;top=0;left=0;bottom=0;right=0;pointerEvents=1;fillColor=#d5e8d4;strokeColor=#82b366;" vertex="1" parent="_K0BIjXZIAGodwV6w2R7-40">
          <mxGeometry x="60" width="60" height="60" as="geometry" />
        </mxCell>
        <mxCell id="_K0BIjXZIAGodwV6w2R7-43" value="" style="shape=partialRectangle;html=1;whiteSpace=wrap;connectable=0;overflow=hidden;top=0;left=0;bottom=0;right=0;pointerEvents=1;" vertex="1" parent="_K0BIjXZIAGodwV6w2R7-40">
          <mxGeometry x="120" width="60" height="60" as="geometry" />
        </mxCell>
        <mxCell id="_K0BIjXZIAGodwV6w2R7-44" value="" style="shape=partialRectangle;collapsible=0;dropTarget=0;pointerEvents=0;fillColor=none;top=0;left=0;bottom=0;right=0;points=[[0,0.5],[1,0.5]];portConstraint=eastwest;" vertex="1" parent="_K0BIjXZIAGodwV6w2R7-35">
          <mxGeometry y="120" width="180" height="60" as="geometry" />
        </mxCell>
        <mxCell id="_K0BIjXZIAGodwV6w2R7-45" value="" style="shape=partialRectangle;html=1;whiteSpace=wrap;connectable=0;overflow=hidden;top=0;left=0;bottom=0;right=0;pointerEvents=1;fillColor=#d5e8d4;strokeColor=#82b366;" vertex="1" parent="_K0BIjXZIAGodwV6w2R7-44">
          <mxGeometry width="60" height="60" as="geometry" />
        </mxCell>
        <mxCell id="_K0BIjXZIAGodwV6w2R7-46" value="" style="shape=partialRectangle;html=1;whiteSpace=wrap;connectable=0;overflow=hidden;top=0;left=0;bottom=0;right=0;pointerEvents=1;fillColor=#d5e8d4;strokeColor=#82b366;" vertex="1" parent="_K0BIjXZIAGodwV6w2R7-44">
          <mxGeometry x="60" width="60" height="60" as="geometry" />
        </mxCell>
        <mxCell id="_K0BIjXZIAGodwV6w2R7-47" value="1" style="shape=partialRectangle;html=1;whiteSpace=wrap;connectable=0;overflow=hidden;fillColor=none;top=0;left=0;bottom=0;right=0;pointerEvents=1;" vertex="1" parent="_K0BIjXZIAGodwV6w2R7-44">
          <mxGeometry x="120" width="60" height="60" as="geometry" />
        </mxCell>
        <mxCell id="_K0BIjXZIAGodwV6w2R7-74" value="" style="shape=table;startSize=0;container=1;collapsible=0;childLayout=tableLayout;" vertex="1" parent="1">
          <mxGeometry x="430" y="600" width="180" height="180" as="geometry" />
        </mxCell>
        <mxCell id="_K0BIjXZIAGodwV6w2R7-75" value="" style="shape=partialRectangle;collapsible=0;dropTarget=0;pointerEvents=0;fillColor=none;top=0;left=0;bottom=0;right=0;points=[[0,0.5],[1,0.5]];portConstraint=eastwest;" vertex="1" parent="_K0BIjXZIAGodwV6w2R7-74">
          <mxGeometry width="180" height="60" as="geometry" />
        </mxCell>
        <mxCell id="_K0BIjXZIAGodwV6w2R7-76" value="" style="shape=partialRectangle;html=1;whiteSpace=wrap;connectable=0;overflow=hidden;top=0;left=0;bottom=0;right=0;pointerEvents=1;fillColor=#f8cecc;strokeColor=#b85450;" vertex="1" parent="_K0BIjXZIAGodwV6w2R7-75">
          <mxGeometry width="60" height="60" as="geometry" />
        </mxCell>
        <mxCell id="_K0BIjXZIAGodwV6w2R7-77" value="" style="shape=partialRectangle;html=1;whiteSpace=wrap;connectable=0;overflow=hidden;top=0;left=0;bottom=0;right=0;pointerEvents=1;fillColor=#f8cecc;strokeColor=#b85450;" vertex="1" parent="_K0BIjXZIAGodwV6w2R7-75">
          <mxGeometry x="60" width="60" height="60" as="geometry" />
        </mxCell>
        <mxCell id="_K0BIjXZIAGodwV6w2R7-78" value="" style="shape=partialRectangle;html=1;whiteSpace=wrap;connectable=0;overflow=hidden;top=0;left=0;bottom=0;right=0;pointerEvents=1;" vertex="1" parent="_K0BIjXZIAGodwV6w2R7-75">
          <mxGeometry x="120" width="60" height="60" as="geometry" />
        </mxCell>
        <mxCell id="_K0BIjXZIAGodwV6w2R7-79" value="" style="shape=partialRectangle;collapsible=0;dropTarget=0;pointerEvents=0;fillColor=none;top=0;left=0;bottom=0;right=0;points=[[0,0.5],[1,0.5]];portConstraint=eastwest;" vertex="1" parent="_K0BIjXZIAGodwV6w2R7-74">
          <mxGeometry y="60" width="180" height="60" as="geometry" />
        </mxCell>
        <mxCell id="_K0BIjXZIAGodwV6w2R7-80" value="" style="shape=partialRectangle;html=1;whiteSpace=wrap;connectable=0;overflow=hidden;top=0;left=0;bottom=0;right=0;pointerEvents=1;fillColor=#f8cecc;strokeColor=#b85450;" vertex="1" parent="_K0BIjXZIAGodwV6w2R7-79">
          <mxGeometry width="60" height="60" as="geometry" />
        </mxCell>
        <mxCell id="_K0BIjXZIAGodwV6w2R7-81" value="" style="shape=partialRectangle;html=1;whiteSpace=wrap;connectable=0;overflow=hidden;top=0;left=0;bottom=0;right=0;pointerEvents=1;fillColor=#f8cecc;strokeColor=#b85450;" vertex="1" parent="_K0BIjXZIAGodwV6w2R7-79">
          <mxGeometry x="60" width="60" height="60" as="geometry" />
        </mxCell>
        <mxCell id="_K0BIjXZIAGodwV6w2R7-82" value="" style="shape=partialRectangle;html=1;whiteSpace=wrap;connectable=0;overflow=hidden;top=0;left=0;bottom=0;right=0;pointerEvents=1;" vertex="1" parent="_K0BIjXZIAGodwV6w2R7-79">
          <mxGeometry x="120" width="60" height="60" as="geometry" />
        </mxCell>
        <mxCell id="_K0BIjXZIAGodwV6w2R7-83" value="" style="shape=partialRectangle;collapsible=0;dropTarget=0;pointerEvents=0;fillColor=none;top=0;left=0;bottom=0;right=0;points=[[0,0.5],[1,0.5]];portConstraint=eastwest;" vertex="1" parent="_K0BIjXZIAGodwV6w2R7-74">
          <mxGeometry y="120" width="180" height="60" as="geometry" />
        </mxCell>
        <mxCell id="_K0BIjXZIAGodwV6w2R7-84" value="" style="shape=partialRectangle;html=1;whiteSpace=wrap;connectable=0;overflow=hidden;top=0;left=0;bottom=0;right=0;pointerEvents=1;" vertex="1" parent="_K0BIjXZIAGodwV6w2R7-83">
          <mxGeometry width="60" height="60" as="geometry" />
        </mxCell>
        <mxCell id="_K0BIjXZIAGodwV6w2R7-85" value="" style="shape=partialRectangle;html=1;whiteSpace=wrap;connectable=0;overflow=hidden;top=0;left=0;bottom=0;right=0;pointerEvents=1;" vertex="1" parent="_K0BIjXZIAGodwV6w2R7-83">
          <mxGeometry x="60" width="60" height="60" as="geometry" />
        </mxCell>
        <mxCell id="_K0BIjXZIAGodwV6w2R7-86" value="1" style="shape=partialRectangle;html=1;whiteSpace=wrap;connectable=0;overflow=hidden;fillColor=none;top=0;left=0;bottom=0;right=0;pointerEvents=1;" vertex="1" parent="_K0BIjXZIAGodwV6w2R7-83">
          <mxGeometry x="120" width="60" height="60" as="geometry" />
        </mxCell>
        <mxCell id="_K0BIjXZIAGodwV6w2R7-87" value="" style="shape=table;startSize=0;container=1;collapsible=0;childLayout=tableLayout;" vertex="1" parent="1">
          <mxGeometry x="640" y="600" width="180" height="180" as="geometry" />
        </mxCell>
        <mxCell id="_K0BIjXZIAGodwV6w2R7-88" value="" style="shape=partialRectangle;collapsible=0;dropTarget=0;pointerEvents=0;fillColor=none;top=0;left=0;bottom=0;right=0;points=[[0,0.5],[1,0.5]];portConstraint=eastwest;" vertex="1" parent="_K0BIjXZIAGodwV6w2R7-87">
          <mxGeometry width="180" height="60" as="geometry" />
        </mxCell>
        <mxCell id="_K0BIjXZIAGodwV6w2R7-89" value="" style="shape=partialRectangle;html=1;whiteSpace=wrap;connectable=0;overflow=hidden;top=0;left=0;bottom=0;right=0;pointerEvents=1;" vertex="1" parent="_K0BIjXZIAGodwV6w2R7-88">
          <mxGeometry width="60" height="60" as="geometry" />
        </mxCell>
        <mxCell id="_K0BIjXZIAGodwV6w2R7-90" value="" style="shape=partialRectangle;html=1;whiteSpace=wrap;connectable=0;overflow=hidden;top=0;left=0;bottom=0;right=0;pointerEvents=1;" vertex="1" parent="_K0BIjXZIAGodwV6w2R7-88">
          <mxGeometry x="60" width="60" height="60" as="geometry" />
        </mxCell>
        <mxCell id="_K0BIjXZIAGodwV6w2R7-91" value="" style="shape=partialRectangle;html=1;whiteSpace=wrap;connectable=0;overflow=hidden;top=0;left=0;bottom=0;right=0;pointerEvents=1;" vertex="1" parent="_K0BIjXZIAGodwV6w2R7-88">
          <mxGeometry x="120" width="60" height="60" as="geometry" />
        </mxCell>
        <mxCell id="_K0BIjXZIAGodwV6w2R7-92" value="" style="shape=partialRectangle;collapsible=0;dropTarget=0;pointerEvents=0;fillColor=none;top=0;left=0;bottom=0;right=0;points=[[0,0.5],[1,0.5]];portConstraint=eastwest;" vertex="1" parent="_K0BIjXZIAGodwV6w2R7-87">
          <mxGeometry y="60" width="180" height="60" as="geometry" />
        </mxCell>
        <mxCell id="_K0BIjXZIAGodwV6w2R7-93" value="" style="shape=partialRectangle;html=1;whiteSpace=wrap;connectable=0;overflow=hidden;top=0;left=0;bottom=0;right=0;pointerEvents=1;" vertex="1" parent="_K0BIjXZIAGodwV6w2R7-92">
          <mxGeometry width="60" height="60" as="geometry" />
        </mxCell>
        <mxCell id="_K0BIjXZIAGodwV6w2R7-94" value="" style="shape=partialRectangle;html=1;whiteSpace=wrap;connectable=0;overflow=hidden;top=0;left=0;bottom=0;right=0;pointerEvents=1;fillColor=#d80073;strokeColor=#A50040;fontColor=#ffffff;" vertex="1" parent="_K0BIjXZIAGodwV6w2R7-92">
          <mxGeometry x="60" width="60" height="60" as="geometry" />
        </mxCell>
        <mxCell id="_K0BIjXZIAGodwV6w2R7-95" value="" style="shape=partialRectangle;html=1;whiteSpace=wrap;connectable=0;overflow=hidden;top=0;left=0;bottom=0;right=0;pointerEvents=1;fillColor=#d80073;strokeColor=#A50040;fontColor=#ffffff;" vertex="1" parent="_K0BIjXZIAGodwV6w2R7-92">
          <mxGeometry x="120" width="60" height="60" as="geometry" />
        </mxCell>
        <mxCell id="_K0BIjXZIAGodwV6w2R7-96" value="" style="shape=partialRectangle;collapsible=0;dropTarget=0;pointerEvents=0;fillColor=none;top=0;left=0;bottom=0;right=0;points=[[0,0.5],[1,0.5]];portConstraint=eastwest;" vertex="1" parent="_K0BIjXZIAGodwV6w2R7-87">
          <mxGeometry y="120" width="180" height="60" as="geometry" />
        </mxCell>
        <mxCell id="_K0BIjXZIAGodwV6w2R7-97" value="" style="shape=partialRectangle;html=1;whiteSpace=wrap;connectable=0;overflow=hidden;top=0;left=0;bottom=0;right=0;pointerEvents=1;" vertex="1" parent="_K0BIjXZIAGodwV6w2R7-96">
          <mxGeometry width="60" height="60" as="geometry" />
        </mxCell>
        <mxCell id="_K0BIjXZIAGodwV6w2R7-98" value="" style="shape=partialRectangle;html=1;whiteSpace=wrap;connectable=0;overflow=hidden;top=0;left=0;bottom=0;right=0;pointerEvents=1;fillColor=#d80073;strokeColor=#A50040;fontColor=#ffffff;" vertex="1" parent="_K0BIjXZIAGodwV6w2R7-96">
          <mxGeometry x="60" width="60" height="60" as="geometry" />
        </mxCell>
        <mxCell id="_K0BIjXZIAGodwV6w2R7-99" value="1" style="shape=partialRectangle;html=1;whiteSpace=wrap;connectable=0;overflow=hidden;fillColor=none;top=0;left=0;bottom=0;right=0;pointerEvents=1;" vertex="1" parent="_K0BIjXZIAGodwV6w2R7-96">
          <mxGeometry x="120" width="60" height="60" as="geometry" />
        </mxCell>
        <mxCell id="_K0BIjXZIAGodwV6w2R7-100" value="" style="endArrow=classic;html=1;strokeColor=#AB071D;" edge="1" parent="1" source="_K0BIjXZIAGodwV6w2R7-23">
          <mxGeometry width="50" height="50" relative="1" as="geometry">
            <mxPoint x="70" y="880" as="sourcePoint" />
            <mxPoint x="120" y="830" as="targetPoint" />
          </mxGeometry>
        </mxCell>
        <mxCell id="_K0BIjXZIAGodwV6w2R7-101" value="" style="endArrow=classic;html=1;strokeColor=#AB071D;" edge="1" parent="1">
          <mxGeometry width="50" height="50" relative="1" as="geometry">
            <mxPoint x="310" y="670" as="sourcePoint" />
            <mxPoint x="301.5" y="840" as="targetPoint" />
          </mxGeometry>
        </mxCell>
        <mxCell id="_K0BIjXZIAGodwV6w2R7-102" value="" style="endArrow=classic;html=1;strokeColor=#AB071D;" edge="1" parent="1">
          <mxGeometry width="50" height="50" relative="1" as="geometry">
            <mxPoint x="524.25" y="670" as="sourcePoint" />
            <mxPoint x="515.75" y="840" as="targetPoint" />
          </mxGeometry>
        </mxCell>
        <mxCell id="_K0BIjXZIAGodwV6w2R7-103" value="max side length: 0 1 2" style="text;html=1;align=center;verticalAlign=middle;resizable=0;points=[];autosize=1;strokeColor=none;" vertex="1" parent="1">
          <mxGeometry x="70" y="860" width="130" height="20" as="geometry" />
        </mxCell>
        <mxCell id="_K0BIjXZIAGodwV6w2R7-104" value="blue" style="text;html=1;align=center;verticalAlign=middle;resizable=0;points=[];autosize=1;strokeColor=none;" vertex="1" parent="1">
          <mxGeometry x="100" y="570" width="40" height="20" as="geometry" />
        </mxCell>
        <mxCell id="_K0BIjXZIAGodwV6w2R7-106" value="green" style="text;html=1;align=center;verticalAlign=middle;resizable=0;points=[];autosize=1;strokeColor=none;" vertex="1" parent="1">
          <mxGeometry x="275" y="570" width="50" height="20" as="geometry" />
        </mxCell>
        <mxCell id="_K0BIjXZIAGodwV6w2R7-107" value="pink" style="text;html=1;align=center;verticalAlign=middle;resizable=0;points=[];autosize=1;strokeColor=none;" vertex="1" parent="1">
          <mxGeometry x="470" y="570" width="40" height="20" as="geometry" />
        </mxCell>
        <mxCell id="_K0BIjXZIAGodwV6w2R7-130" value="min side length = 1" style="text;html=1;align=center;verticalAlign=middle;resizable=0;points=[];autosize=1;strokeColor=none;" vertex="1" parent="1">
          <mxGeometry x="20" y="960" width="120" height="20" as="geometry" />
        </mxCell>
        <mxCell id="_K0BIjXZIAGodwV6w2R7-131" value="" style="shape=table;startSize=0;container=1;collapsible=0;childLayout=tableLayout;" vertex="1" parent="1">
          <mxGeometry x="40" y="1020" width="180" height="180" as="geometry" />
        </mxCell>
        <mxCell id="_K0BIjXZIAGodwV6w2R7-132" value="" style="shape=partialRectangle;collapsible=0;dropTarget=0;pointerEvents=0;fillColor=none;top=0;left=0;bottom=0;right=0;points=[[0,0.5],[1,0.5]];portConstraint=eastwest;" vertex="1" parent="_K0BIjXZIAGodwV6w2R7-131">
          <mxGeometry width="180" height="60" as="geometry" />
        </mxCell>
        <mxCell id="_K0BIjXZIAGodwV6w2R7-133" value="1" style="shape=partialRectangle;html=1;whiteSpace=wrap;connectable=0;overflow=hidden;top=0;left=0;bottom=0;right=0;pointerEvents=1;" vertex="1" parent="_K0BIjXZIAGodwV6w2R7-132">
          <mxGeometry width="60" height="60" as="geometry" />
        </mxCell>
        <mxCell id="_K0BIjXZIAGodwV6w2R7-134" value="1" style="shape=partialRectangle;html=1;whiteSpace=wrap;connectable=0;overflow=hidden;top=0;left=0;bottom=0;right=0;pointerEvents=1;fillColor=#dae8fc;strokeColor=#6c8ebf;" vertex="1" parent="_K0BIjXZIAGodwV6w2R7-132">
          <mxGeometry x="60" width="60" height="60" as="geometry" />
        </mxCell>
        <mxCell id="_K0BIjXZIAGodwV6w2R7-135" value="0" style="shape=partialRectangle;html=1;whiteSpace=wrap;connectable=0;overflow=hidden;top=0;left=0;bottom=0;right=0;pointerEvents=1;fillColor=#dae8fc;strokeColor=#6c8ebf;" vertex="1" parent="_K0BIjXZIAGodwV6w2R7-132">
          <mxGeometry x="120" width="60" height="60" as="geometry" />
        </mxCell>
        <mxCell id="_K0BIjXZIAGodwV6w2R7-136" value="" style="shape=partialRectangle;collapsible=0;dropTarget=0;pointerEvents=0;fillColor=none;top=0;left=0;bottom=0;right=0;points=[[0,0.5],[1,0.5]];portConstraint=eastwest;" vertex="1" parent="_K0BIjXZIAGodwV6w2R7-131">
          <mxGeometry y="60" width="180" height="60" as="geometry" />
        </mxCell>
        <mxCell id="_K0BIjXZIAGodwV6w2R7-137" value="1" style="shape=partialRectangle;html=1;whiteSpace=wrap;connectable=0;overflow=hidden;top=0;left=0;bottom=0;right=0;pointerEvents=1;" vertex="1" parent="_K0BIjXZIAGodwV6w2R7-136">
          <mxGeometry width="60" height="60" as="geometry" />
        </mxCell>
        <mxCell id="_K0BIjXZIAGodwV6w2R7-138" value="1" style="shape=partialRectangle;html=1;whiteSpace=wrap;connectable=0;overflow=hidden;top=0;left=0;bottom=0;right=0;pointerEvents=1;fillColor=#dae8fc;strokeColor=#6c8ebf;" vertex="1" parent="_K0BIjXZIAGodwV6w2R7-136">
          <mxGeometry x="60" width="60" height="60" as="geometry" />
        </mxCell>
        <mxCell id="_K0BIjXZIAGodwV6w2R7-139" value="1" style="shape=partialRectangle;html=1;whiteSpace=wrap;connectable=0;overflow=hidden;top=0;left=0;bottom=0;right=0;pointerEvents=1;fillColor=#dae8fc;strokeColor=#6c8ebf;" vertex="1" parent="_K0BIjXZIAGodwV6w2R7-136">
          <mxGeometry x="120" width="60" height="60" as="geometry" />
        </mxCell>
        <mxCell id="_K0BIjXZIAGodwV6w2R7-140" value="" style="shape=partialRectangle;collapsible=0;dropTarget=0;pointerEvents=0;fillColor=none;top=0;left=0;bottom=0;right=0;points=[[0,0.5],[1,0.5]];portConstraint=eastwest;" vertex="1" parent="_K0BIjXZIAGodwV6w2R7-131">
          <mxGeometry y="120" width="180" height="60" as="geometry" />
        </mxCell>
        <mxCell id="_K0BIjXZIAGodwV6w2R7-141" value="1" style="shape=partialRectangle;html=1;whiteSpace=wrap;connectable=0;overflow=hidden;top=0;left=0;bottom=0;right=0;pointerEvents=1;" vertex="1" parent="_K0BIjXZIAGodwV6w2R7-140">
          <mxGeometry width="60" height="60" as="geometry" />
        </mxCell>
        <mxCell id="_K0BIjXZIAGodwV6w2R7-142" value="1" style="shape=partialRectangle;html=1;whiteSpace=wrap;connectable=0;overflow=hidden;top=0;left=0;bottom=0;right=0;pointerEvents=1;" vertex="1" parent="_K0BIjXZIAGodwV6w2R7-140">
          <mxGeometry x="60" width="60" height="60" as="geometry" />
        </mxCell>
        <mxCell id="_K0BIjXZIAGodwV6w2R7-143" value="1" style="shape=partialRectangle;html=1;whiteSpace=wrap;connectable=0;overflow=hidden;fillColor=none;top=0;left=0;bottom=0;right=0;pointerEvents=1;" vertex="1" parent="_K0BIjXZIAGodwV6w2R7-140">
          <mxGeometry x="120" width="60" height="60" as="geometry" />
        </mxCell>
        <mxCell id="_K0BIjXZIAGodwV6w2R7-144" value="" style="shape=table;startSize=0;container=1;collapsible=0;childLayout=tableLayout;" vertex="1" parent="1">
          <mxGeometry x="250" y="1020" width="180" height="180" as="geometry" />
        </mxCell>
        <mxCell id="_K0BIjXZIAGodwV6w2R7-145" value="" style="shape=partialRectangle;collapsible=0;dropTarget=0;pointerEvents=0;fillColor=none;top=0;left=0;bottom=0;right=0;points=[[0,0.5],[1,0.5]];portConstraint=eastwest;" vertex="1" parent="_K0BIjXZIAGodwV6w2R7-144">
          <mxGeometry width="180" height="60" as="geometry" />
        </mxCell>
        <mxCell id="_K0BIjXZIAGodwV6w2R7-146" value="0" style="shape=partialRectangle;html=1;whiteSpace=wrap;connectable=0;overflow=hidden;top=0;left=0;bottom=0;right=0;pointerEvents=1;fillColor=#f8cecc;strokeColor=#b85450;" vertex="1" parent="_K0BIjXZIAGodwV6w2R7-145">
          <mxGeometry width="60" height="60" as="geometry" />
        </mxCell>
        <mxCell id="_K0BIjXZIAGodwV6w2R7-147" value="1" style="shape=partialRectangle;html=1;whiteSpace=wrap;connectable=0;overflow=hidden;top=0;left=0;bottom=0;right=0;pointerEvents=1;fillColor=#f8cecc;strokeColor=#b85450;" vertex="1" parent="_K0BIjXZIAGodwV6w2R7-145">
          <mxGeometry x="60" width="60" height="60" as="geometry" />
        </mxCell>
        <mxCell id="_K0BIjXZIAGodwV6w2R7-148" value="1" style="shape=partialRectangle;html=1;whiteSpace=wrap;connectable=0;overflow=hidden;top=0;left=0;bottom=0;right=0;pointerEvents=1;" vertex="1" parent="_K0BIjXZIAGodwV6w2R7-145">
          <mxGeometry x="120" width="60" height="60" as="geometry" />
        </mxCell>
        <mxCell id="_K0BIjXZIAGodwV6w2R7-149" value="" style="shape=partialRectangle;collapsible=0;dropTarget=0;pointerEvents=0;fillColor=none;top=0;left=0;bottom=0;right=0;points=[[0,0.5],[1,0.5]];portConstraint=eastwest;" vertex="1" parent="_K0BIjXZIAGodwV6w2R7-144">
          <mxGeometry y="60" width="180" height="60" as="geometry" />
        </mxCell>
        <mxCell id="_K0BIjXZIAGodwV6w2R7-150" value="1" style="shape=partialRectangle;html=1;whiteSpace=wrap;connectable=0;overflow=hidden;top=0;left=0;bottom=0;right=0;pointerEvents=1;fillColor=#f8cecc;strokeColor=#b85450;" vertex="1" parent="_K0BIjXZIAGodwV6w2R7-149">
          <mxGeometry width="60" height="60" as="geometry" />
        </mxCell>
        <mxCell id="_K0BIjXZIAGodwV6w2R7-151" value="1" style="shape=partialRectangle;html=1;whiteSpace=wrap;connectable=0;overflow=hidden;top=0;left=0;bottom=0;right=0;pointerEvents=1;fillColor=#f8cecc;strokeColor=#b85450;" vertex="1" parent="_K0BIjXZIAGodwV6w2R7-149">
          <mxGeometry x="60" width="60" height="60" as="geometry" />
        </mxCell>
        <mxCell id="_K0BIjXZIAGodwV6w2R7-152" value="1" style="shape=partialRectangle;html=1;whiteSpace=wrap;connectable=0;overflow=hidden;top=0;left=0;bottom=0;right=0;pointerEvents=1;" vertex="1" parent="_K0BIjXZIAGodwV6w2R7-149">
          <mxGeometry x="120" width="60" height="60" as="geometry" />
        </mxCell>
        <mxCell id="_K0BIjXZIAGodwV6w2R7-153" value="" style="shape=partialRectangle;collapsible=0;dropTarget=0;pointerEvents=0;fillColor=none;top=0;left=0;bottom=0;right=0;points=[[0,0.5],[1,0.5]];portConstraint=eastwest;" vertex="1" parent="_K0BIjXZIAGodwV6w2R7-144">
          <mxGeometry y="120" width="180" height="60" as="geometry" />
        </mxCell>
        <mxCell id="_K0BIjXZIAGodwV6w2R7-154" value="1" style="shape=partialRectangle;html=1;whiteSpace=wrap;connectable=0;overflow=hidden;top=0;left=0;bottom=0;right=0;pointerEvents=1;" vertex="1" parent="_K0BIjXZIAGodwV6w2R7-153">
          <mxGeometry width="60" height="60" as="geometry" />
        </mxCell>
        <mxCell id="_K0BIjXZIAGodwV6w2R7-155" value="1" style="shape=partialRectangle;html=1;whiteSpace=wrap;connectable=0;overflow=hidden;top=0;left=0;bottom=0;right=0;pointerEvents=1;" vertex="1" parent="_K0BIjXZIAGodwV6w2R7-153">
          <mxGeometry x="60" width="60" height="60" as="geometry" />
        </mxCell>
        <mxCell id="_K0BIjXZIAGodwV6w2R7-156" value="1" style="shape=partialRectangle;html=1;whiteSpace=wrap;connectable=0;overflow=hidden;fillColor=none;top=0;left=0;bottom=0;right=0;pointerEvents=1;" vertex="1" parent="_K0BIjXZIAGodwV6w2R7-153">
          <mxGeometry x="120" width="60" height="60" as="geometry" />
        </mxCell>
        <mxCell id="_K0BIjXZIAGodwV6w2R7-157" value="" style="shape=table;startSize=0;container=1;collapsible=0;childLayout=tableLayout;" vertex="1" parent="1">
          <mxGeometry x="470" y="1020" width="180" height="180" as="geometry" />
        </mxCell>
        <mxCell id="_K0BIjXZIAGodwV6w2R7-158" value="" style="shape=partialRectangle;collapsible=0;dropTarget=0;pointerEvents=0;fillColor=none;top=0;left=0;bottom=0;right=0;points=[[0,0.5],[1,0.5]];portConstraint=eastwest;" vertex="1" parent="_K0BIjXZIAGodwV6w2R7-157">
          <mxGeometry width="180" height="60" as="geometry" />
        </mxCell>
        <mxCell id="_K0BIjXZIAGodwV6w2R7-159" value="1" style="shape=partialRectangle;html=1;whiteSpace=wrap;connectable=0;overflow=hidden;top=0;left=0;bottom=0;right=0;pointerEvents=1;" vertex="1" parent="_K0BIjXZIAGodwV6w2R7-158">
          <mxGeometry width="60" height="60" as="geometry" />
        </mxCell>
        <mxCell id="_K0BIjXZIAGodwV6w2R7-160" value="1" style="shape=partialRectangle;html=1;whiteSpace=wrap;connectable=0;overflow=hidden;top=0;left=0;bottom=0;right=0;pointerEvents=1;" vertex="1" parent="_K0BIjXZIAGodwV6w2R7-158">
          <mxGeometry x="60" width="60" height="60" as="geometry" />
        </mxCell>
        <mxCell id="_K0BIjXZIAGodwV6w2R7-161" value="1" style="shape=partialRectangle;html=1;whiteSpace=wrap;connectable=0;overflow=hidden;top=0;left=0;bottom=0;right=0;pointerEvents=1;" vertex="1" parent="_K0BIjXZIAGodwV6w2R7-158">
          <mxGeometry x="120" width="60" height="60" as="geometry" />
        </mxCell>
        <mxCell id="_K0BIjXZIAGodwV6w2R7-162" value="" style="shape=partialRectangle;collapsible=0;dropTarget=0;pointerEvents=0;fillColor=none;top=0;left=0;bottom=0;right=0;points=[[0,0.5],[1,0.5]];portConstraint=eastwest;" vertex="1" parent="_K0BIjXZIAGodwV6w2R7-157">
          <mxGeometry y="60" width="180" height="60" as="geometry" />
        </mxCell>
        <mxCell id="_K0BIjXZIAGodwV6w2R7-163" value="1" style="shape=partialRectangle;html=1;whiteSpace=wrap;connectable=0;overflow=hidden;top=0;left=0;bottom=0;right=0;pointerEvents=1;fillColor=#d5e8d4;strokeColor=#82b366;" vertex="1" parent="_K0BIjXZIAGodwV6w2R7-162">
          <mxGeometry width="60" height="60" as="geometry" />
        </mxCell>
        <mxCell id="_K0BIjXZIAGodwV6w2R7-164" value="1" style="shape=partialRectangle;html=1;whiteSpace=wrap;connectable=0;overflow=hidden;top=0;left=0;bottom=0;right=0;pointerEvents=1;fillColor=#d5e8d4;strokeColor=#82b366;" vertex="1" parent="_K0BIjXZIAGodwV6w2R7-162">
          <mxGeometry x="60" width="60" height="60" as="geometry" />
        </mxCell>
        <mxCell id="_K0BIjXZIAGodwV6w2R7-165" value="1" style="shape=partialRectangle;html=1;whiteSpace=wrap;connectable=0;overflow=hidden;top=0;left=0;bottom=0;right=0;pointerEvents=1;" vertex="1" parent="_K0BIjXZIAGodwV6w2R7-162">
          <mxGeometry x="120" width="60" height="60" as="geometry" />
        </mxCell>
        <mxCell id="_K0BIjXZIAGodwV6w2R7-166" value="" style="shape=partialRectangle;collapsible=0;dropTarget=0;pointerEvents=0;fillColor=none;top=0;left=0;bottom=0;right=0;points=[[0,0.5],[1,0.5]];portConstraint=eastwest;" vertex="1" parent="_K0BIjXZIAGodwV6w2R7-157">
          <mxGeometry y="120" width="180" height="60" as="geometry" />
        </mxCell>
        <mxCell id="_K0BIjXZIAGodwV6w2R7-167" value="0" style="shape=partialRectangle;html=1;whiteSpace=wrap;connectable=0;overflow=hidden;top=0;left=0;bottom=0;right=0;pointerEvents=1;fillColor=#d5e8d4;strokeColor=#82b366;" vertex="1" parent="_K0BIjXZIAGodwV6w2R7-166">
          <mxGeometry width="60" height="60" as="geometry" />
        </mxCell>
        <mxCell id="_K0BIjXZIAGodwV6w2R7-168" value="1" style="shape=partialRectangle;html=1;whiteSpace=wrap;connectable=0;overflow=hidden;top=0;left=0;bottom=0;right=0;pointerEvents=1;fillColor=#d5e8d4;strokeColor=#82b366;" vertex="1" parent="_K0BIjXZIAGodwV6w2R7-166">
          <mxGeometry x="60" width="60" height="60" as="geometry" />
        </mxCell>
        <mxCell id="_K0BIjXZIAGodwV6w2R7-169" value="1" style="shape=partialRectangle;html=1;whiteSpace=wrap;connectable=0;overflow=hidden;fillColor=none;top=0;left=0;bottom=0;right=0;pointerEvents=1;" vertex="1" parent="_K0BIjXZIAGodwV6w2R7-166">
          <mxGeometry x="120" width="60" height="60" as="geometry" />
        </mxCell>
        <mxCell id="_K0BIjXZIAGodwV6w2R7-170" value="" style="shape=table;startSize=0;container=1;collapsible=0;childLayout=tableLayout;" vertex="1" parent="1">
          <mxGeometry x="60" y="1270" width="120" height="160" as="geometry" />
        </mxCell>
        <mxCell id="_K0BIjXZIAGodwV6w2R7-171" value="" style="shape=partialRectangle;collapsible=0;dropTarget=0;pointerEvents=0;fillColor=none;top=0;left=0;bottom=0;right=0;points=[[0,0.5],[1,0.5]];portConstraint=eastwest;" vertex="1" parent="_K0BIjXZIAGodwV6w2R7-170">
          <mxGeometry width="120" height="40" as="geometry" />
        </mxCell>
        <mxCell id="_K0BIjXZIAGodwV6w2R7-172" value="blue" style="shape=partialRectangle;html=1;whiteSpace=wrap;connectable=0;overflow=hidden;fillColor=none;top=0;left=0;bottom=0;right=0;pointerEvents=1;" vertex="1" parent="_K0BIjXZIAGodwV6w2R7-171">
          <mxGeometry width="60" height="40" as="geometry" />
        </mxCell>
        <mxCell id="_K0BIjXZIAGodwV6w2R7-173" value="1" style="shape=partialRectangle;html=1;whiteSpace=wrap;connectable=0;overflow=hidden;fillColor=none;top=0;left=0;bottom=0;right=0;pointerEvents=1;" vertex="1" parent="_K0BIjXZIAGodwV6w2R7-171">
          <mxGeometry x="60" width="60" height="40" as="geometry" />
        </mxCell>
        <mxCell id="_K0BIjXZIAGodwV6w2R7-175" value="" style="shape=partialRectangle;collapsible=0;dropTarget=0;pointerEvents=0;fillColor=none;top=0;left=0;bottom=0;right=0;points=[[0,0.5],[1,0.5]];portConstraint=eastwest;" vertex="1" parent="_K0BIjXZIAGodwV6w2R7-170">
          <mxGeometry y="40" width="120" height="40" as="geometry" />
        </mxCell>
        <mxCell id="_K0BIjXZIAGodwV6w2R7-176" value="green" style="shape=partialRectangle;html=1;whiteSpace=wrap;connectable=0;overflow=hidden;fillColor=none;top=0;left=0;bottom=0;right=0;pointerEvents=1;" vertex="1" parent="_K0BIjXZIAGodwV6w2R7-175">
          <mxGeometry width="60" height="40" as="geometry" />
        </mxCell>
        <mxCell id="_K0BIjXZIAGodwV6w2R7-177" value="2" style="shape=partialRectangle;html=1;whiteSpace=wrap;connectable=0;overflow=hidden;fillColor=none;top=0;left=0;bottom=0;right=0;pointerEvents=1;" vertex="1" parent="_K0BIjXZIAGodwV6w2R7-175">
          <mxGeometry x="60" width="60" height="40" as="geometry" />
        </mxCell>
        <mxCell id="_K0BIjXZIAGodwV6w2R7-179" value="" style="shape=partialRectangle;collapsible=0;dropTarget=0;pointerEvents=0;fillColor=none;top=0;left=0;bottom=0;right=0;points=[[0,0.5],[1,0.5]];portConstraint=eastwest;" vertex="1" parent="_K0BIjXZIAGodwV6w2R7-170">
          <mxGeometry y="80" width="120" height="40" as="geometry" />
        </mxCell>
        <mxCell id="_K0BIjXZIAGodwV6w2R7-180" value="pink" style="shape=partialRectangle;html=1;whiteSpace=wrap;connectable=0;overflow=hidden;fillColor=none;top=0;left=0;bottom=0;right=0;pointerEvents=1;" vertex="1" parent="_K0BIjXZIAGodwV6w2R7-179">
          <mxGeometry width="60" height="40" as="geometry" />
        </mxCell>
        <mxCell id="_K0BIjXZIAGodwV6w2R7-181" value="2" style="shape=partialRectangle;html=1;whiteSpace=wrap;connectable=0;overflow=hidden;fillColor=none;top=0;left=0;bottom=0;right=0;pointerEvents=1;" vertex="1" parent="_K0BIjXZIAGodwV6w2R7-179">
          <mxGeometry x="60" width="60" height="40" as="geometry" />
        </mxCell>
        <mxCell id="_K0BIjXZIAGodwV6w2R7-186" style="shape=partialRectangle;collapsible=0;dropTarget=0;pointerEvents=0;fillColor=none;top=0;left=0;bottom=0;right=0;points=[[0,0.5],[1,0.5]];portConstraint=eastwest;" vertex="1" parent="_K0BIjXZIAGodwV6w2R7-170">
          <mxGeometry y="120" width="120" height="40" as="geometry" />
        </mxCell>
        <mxCell id="_K0BIjXZIAGodwV6w2R7-187" value="x,y" style="shape=partialRectangle;html=1;whiteSpace=wrap;connectable=0;overflow=hidden;fillColor=none;top=0;left=0;bottom=0;right=0;pointerEvents=1;" vertex="1" parent="_K0BIjXZIAGodwV6w2R7-186">
          <mxGeometry width="60" height="40" as="geometry" />
        </mxCell>
        <mxCell id="_K0BIjXZIAGodwV6w2R7-188" value="2" style="shape=partialRectangle;html=1;whiteSpace=wrap;connectable=0;overflow=hidden;fillColor=none;top=0;left=0;bottom=0;right=0;pointerEvents=1;" vertex="1" parent="_K0BIjXZIAGodwV6w2R7-186">
          <mxGeometry x="60" width="60" height="40" as="geometry" />
        </mxCell>
        <mxCell id="_K0BIjXZIAGodwV6w2R7-189" value="" style="shape=table;startSize=0;container=1;collapsible=0;childLayout=tableLayout;" vertex="1" parent="1">
          <mxGeometry x="294" y="1270" width="120" height="160" as="geometry" />
        </mxCell>
        <mxCell id="_K0BIjXZIAGodwV6w2R7-190" value="" style="shape=partialRectangle;collapsible=0;dropTarget=0;pointerEvents=0;fillColor=none;top=0;left=0;bottom=0;right=0;points=[[0,0.5],[1,0.5]];portConstraint=eastwest;" vertex="1" parent="_K0BIjXZIAGodwV6w2R7-189">
          <mxGeometry width="120" height="40" as="geometry" />
        </mxCell>
        <mxCell id="_K0BIjXZIAGodwV6w2R7-191" value="blue" style="shape=partialRectangle;html=1;whiteSpace=wrap;connectable=0;overflow=hidden;fillColor=none;top=0;left=0;bottom=0;right=0;pointerEvents=1;" vertex="1" parent="_K0BIjXZIAGodwV6w2R7-190">
          <mxGeometry width="60" height="40" as="geometry" />
        </mxCell>
        <mxCell id="_K0BIjXZIAGodwV6w2R7-192" value="2" style="shape=partialRectangle;html=1;whiteSpace=wrap;connectable=0;overflow=hidden;fillColor=none;top=0;left=0;bottom=0;right=0;pointerEvents=1;" vertex="1" parent="_K0BIjXZIAGodwV6w2R7-190">
          <mxGeometry x="60" width="60" height="40" as="geometry" />
        </mxCell>
        <mxCell id="_K0BIjXZIAGodwV6w2R7-193" value="" style="shape=partialRectangle;collapsible=0;dropTarget=0;pointerEvents=0;fillColor=none;top=0;left=0;bottom=0;right=0;points=[[0,0.5],[1,0.5]];portConstraint=eastwest;" vertex="1" parent="_K0BIjXZIAGodwV6w2R7-189">
          <mxGeometry y="40" width="120" height="40" as="geometry" />
        </mxCell>
        <mxCell id="_K0BIjXZIAGodwV6w2R7-194" value="green" style="shape=partialRectangle;html=1;whiteSpace=wrap;connectable=0;overflow=hidden;fillColor=none;top=0;left=0;bottom=0;right=0;pointerEvents=1;" vertex="1" parent="_K0BIjXZIAGodwV6w2R7-193">
          <mxGeometry width="60" height="40" as="geometry" />
        </mxCell>
        <mxCell id="_K0BIjXZIAGodwV6w2R7-195" value="2" style="shape=partialRectangle;html=1;whiteSpace=wrap;connectable=0;overflow=hidden;fillColor=none;top=0;left=0;bottom=0;right=0;pointerEvents=1;" vertex="1" parent="_K0BIjXZIAGodwV6w2R7-193">
          <mxGeometry x="60" width="60" height="40" as="geometry" />
        </mxCell>
        <mxCell id="_K0BIjXZIAGodwV6w2R7-196" value="" style="shape=partialRectangle;collapsible=0;dropTarget=0;pointerEvents=0;fillColor=none;top=0;left=0;bottom=0;right=0;points=[[0,0.5],[1,0.5]];portConstraint=eastwest;" vertex="1" parent="_K0BIjXZIAGodwV6w2R7-189">
          <mxGeometry y="80" width="120" height="40" as="geometry" />
        </mxCell>
        <mxCell id="_K0BIjXZIAGodwV6w2R7-197" value="pink" style="shape=partialRectangle;html=1;whiteSpace=wrap;connectable=0;overflow=hidden;fillColor=none;top=0;left=0;bottom=0;right=0;pointerEvents=1;" vertex="1" parent="_K0BIjXZIAGodwV6w2R7-196">
          <mxGeometry width="60" height="40" as="geometry" />
        </mxCell>
        <mxCell id="_K0BIjXZIAGodwV6w2R7-198" value="1" style="shape=partialRectangle;html=1;whiteSpace=wrap;connectable=0;overflow=hidden;fillColor=none;top=0;left=0;bottom=0;right=0;pointerEvents=1;" vertex="1" parent="_K0BIjXZIAGodwV6w2R7-196">
          <mxGeometry x="60" width="60" height="40" as="geometry" />
        </mxCell>
        <mxCell id="_K0BIjXZIAGodwV6w2R7-199" style="shape=partialRectangle;collapsible=0;dropTarget=0;pointerEvents=0;fillColor=none;top=0;left=0;bottom=0;right=0;points=[[0,0.5],[1,0.5]];portConstraint=eastwest;" vertex="1" parent="_K0BIjXZIAGodwV6w2R7-189">
          <mxGeometry y="120" width="120" height="40" as="geometry" />
        </mxCell>
        <mxCell id="_K0BIjXZIAGodwV6w2R7-200" value="x,y" style="shape=partialRectangle;html=1;whiteSpace=wrap;connectable=0;overflow=hidden;fillColor=none;top=0;left=0;bottom=0;right=0;pointerEvents=1;" vertex="1" parent="_K0BIjXZIAGodwV6w2R7-199">
          <mxGeometry width="60" height="40" as="geometry" />
        </mxCell>
        <mxCell id="_K0BIjXZIAGodwV6w2R7-201" value="2" style="shape=partialRectangle;html=1;whiteSpace=wrap;connectable=0;overflow=hidden;fillColor=none;top=0;left=0;bottom=0;right=0;pointerEvents=1;" vertex="1" parent="_K0BIjXZIAGodwV6w2R7-199">
          <mxGeometry x="60" width="60" height="40" as="geometry" />
        </mxCell>
        <mxCell id="_K0BIjXZIAGodwV6w2R7-202" value="" style="shape=table;startSize=0;container=1;collapsible=0;childLayout=tableLayout;" vertex="1" parent="1">
          <mxGeometry x="520" y="1270" width="120" height="160" as="geometry" />
        </mxCell>
        <mxCell id="_K0BIjXZIAGodwV6w2R7-203" value="" style="shape=partialRectangle;collapsible=0;dropTarget=0;pointerEvents=0;fillColor=none;top=0;left=0;bottom=0;right=0;points=[[0,0.5],[1,0.5]];portConstraint=eastwest;" vertex="1" parent="_K0BIjXZIAGodwV6w2R7-202">
          <mxGeometry width="120" height="40" as="geometry" />
        </mxCell>
        <mxCell id="_K0BIjXZIAGodwV6w2R7-204" value="blue" style="shape=partialRectangle;html=1;whiteSpace=wrap;connectable=0;overflow=hidden;fillColor=none;top=0;left=0;bottom=0;right=0;pointerEvents=1;" vertex="1" parent="_K0BIjXZIAGodwV6w2R7-203">
          <mxGeometry width="60" height="40" as="geometry" />
        </mxCell>
        <mxCell id="_K0BIjXZIAGodwV6w2R7-205" value="2" style="shape=partialRectangle;html=1;whiteSpace=wrap;connectable=0;overflow=hidden;fillColor=none;top=0;left=0;bottom=0;right=0;pointerEvents=1;" vertex="1" parent="_K0BIjXZIAGodwV6w2R7-203">
          <mxGeometry x="60" width="60" height="40" as="geometry" />
        </mxCell>
        <mxCell id="_K0BIjXZIAGodwV6w2R7-206" value="" style="shape=partialRectangle;collapsible=0;dropTarget=0;pointerEvents=0;fillColor=none;top=0;left=0;bottom=0;right=0;points=[[0,0.5],[1,0.5]];portConstraint=eastwest;" vertex="1" parent="_K0BIjXZIAGodwV6w2R7-202">
          <mxGeometry y="40" width="120" height="40" as="geometry" />
        </mxCell>
        <mxCell id="_K0BIjXZIAGodwV6w2R7-207" value="green" style="shape=partialRectangle;html=1;whiteSpace=wrap;connectable=0;overflow=hidden;fillColor=none;top=0;left=0;bottom=0;right=0;pointerEvents=1;" vertex="1" parent="_K0BIjXZIAGodwV6w2R7-206">
          <mxGeometry width="60" height="40" as="geometry" />
        </mxCell>
        <mxCell id="_K0BIjXZIAGodwV6w2R7-208" value="1" style="shape=partialRectangle;html=1;whiteSpace=wrap;connectable=0;overflow=hidden;fillColor=none;top=0;left=0;bottom=0;right=0;pointerEvents=1;" vertex="1" parent="_K0BIjXZIAGodwV6w2R7-206">
          <mxGeometry x="60" width="60" height="40" as="geometry" />
        </mxCell>
        <mxCell id="_K0BIjXZIAGodwV6w2R7-209" value="" style="shape=partialRectangle;collapsible=0;dropTarget=0;pointerEvents=0;fillColor=none;top=0;left=0;bottom=0;right=0;points=[[0,0.5],[1,0.5]];portConstraint=eastwest;" vertex="1" parent="_K0BIjXZIAGodwV6w2R7-202">
          <mxGeometry y="80" width="120" height="40" as="geometry" />
        </mxCell>
        <mxCell id="_K0BIjXZIAGodwV6w2R7-210" value="pink" style="shape=partialRectangle;html=1;whiteSpace=wrap;connectable=0;overflow=hidden;fillColor=none;top=0;left=0;bottom=0;right=0;pointerEvents=1;" vertex="1" parent="_K0BIjXZIAGodwV6w2R7-209">
          <mxGeometry width="60" height="40" as="geometry" />
        </mxCell>
        <mxCell id="_K0BIjXZIAGodwV6w2R7-211" value="2" style="shape=partialRectangle;html=1;whiteSpace=wrap;connectable=0;overflow=hidden;fillColor=none;top=0;left=0;bottom=0;right=0;pointerEvents=1;" vertex="1" parent="_K0BIjXZIAGodwV6w2R7-209">
          <mxGeometry x="60" width="60" height="40" as="geometry" />
        </mxCell>
        <mxCell id="_K0BIjXZIAGodwV6w2R7-212" style="shape=partialRectangle;collapsible=0;dropTarget=0;pointerEvents=0;fillColor=none;top=0;left=0;bottom=0;right=0;points=[[0,0.5],[1,0.5]];portConstraint=eastwest;" vertex="1" parent="_K0BIjXZIAGodwV6w2R7-202">
          <mxGeometry y="120" width="120" height="40" as="geometry" />
        </mxCell>
        <mxCell id="_K0BIjXZIAGodwV6w2R7-213" value="x,y" style="shape=partialRectangle;html=1;whiteSpace=wrap;connectable=0;overflow=hidden;fillColor=none;top=0;left=0;bottom=0;right=0;pointerEvents=1;" vertex="1" parent="_K0BIjXZIAGodwV6w2R7-212">
          <mxGeometry width="60" height="40" as="geometry" />
        </mxCell>
        <mxCell id="_K0BIjXZIAGodwV6w2R7-214" value="2" style="shape=partialRectangle;html=1;whiteSpace=wrap;connectable=0;overflow=hidden;fillColor=none;top=0;left=0;bottom=0;right=0;pointerEvents=1;" vertex="1" parent="_K0BIjXZIAGodwV6w2R7-212">
          <mxGeometry x="60" width="60" height="40" as="geometry" />
        </mxCell>
        <mxCell id="_K0BIjXZIAGodwV6w2R7-215" value="" style="rounded=0;whiteSpace=wrap;html=1;shadow=0;sketch=0;glass=0;fillColor=none;" vertex="1" parent="1">
          <mxGeometry x="4" y="950" width="700" height="520" as="geometry" />
        </mxCell>
        <mxCell id="_K0BIjXZIAGodwV6w2R7-216" value="min side length = 2" style="text;html=1;align=center;verticalAlign=middle;resizable=0;points=[];autosize=1;strokeColor=none;" vertex="1" parent="1">
          <mxGeometry x="24" y="1520" width="120" height="20" as="geometry" />
        </mxCell>
        <mxCell id="_K0BIjXZIAGodwV6w2R7-217" value="" style="shape=table;startSize=0;container=1;collapsible=0;childLayout=tableLayout;" vertex="1" parent="1">
          <mxGeometry x="44" y="1580" width="180" height="180" as="geometry" />
        </mxCell>
        <mxCell id="_K0BIjXZIAGodwV6w2R7-218" value="" style="shape=partialRectangle;collapsible=0;dropTarget=0;pointerEvents=0;fillColor=none;top=0;left=0;bottom=0;right=0;points=[[0,0.5],[1,0.5]];portConstraint=eastwest;" vertex="1" parent="_K0BIjXZIAGodwV6w2R7-217">
          <mxGeometry width="180" height="60" as="geometry" />
        </mxCell>
        <mxCell id="_K0BIjXZIAGodwV6w2R7-219" value="1" style="shape=partialRectangle;html=1;whiteSpace=wrap;connectable=0;overflow=hidden;top=0;left=0;bottom=0;right=0;pointerEvents=1;" vertex="1" parent="_K0BIjXZIAGodwV6w2R7-218">
          <mxGeometry width="60" height="60" as="geometry" />
        </mxCell>
        <mxCell id="_K0BIjXZIAGodwV6w2R7-220" value="1" style="shape=partialRectangle;html=1;whiteSpace=wrap;connectable=0;overflow=hidden;top=0;left=0;bottom=0;right=0;pointerEvents=1;fillColor=#dae8fc;strokeColor=#6c8ebf;" vertex="1" parent="_K0BIjXZIAGodwV6w2R7-218">
          <mxGeometry x="60" width="60" height="60" as="geometry" />
        </mxCell>
        <mxCell id="_K0BIjXZIAGodwV6w2R7-221" value="1" style="shape=partialRectangle;html=1;whiteSpace=wrap;connectable=0;overflow=hidden;top=0;left=0;bottom=0;right=0;pointerEvents=1;fillColor=#dae8fc;strokeColor=#6c8ebf;" vertex="1" parent="_K0BIjXZIAGodwV6w2R7-218">
          <mxGeometry x="120" width="60" height="60" as="geometry" />
        </mxCell>
        <mxCell id="_K0BIjXZIAGodwV6w2R7-222" value="" style="shape=partialRectangle;collapsible=0;dropTarget=0;pointerEvents=0;fillColor=none;top=0;left=0;bottom=0;right=0;points=[[0,0.5],[1,0.5]];portConstraint=eastwest;" vertex="1" parent="_K0BIjXZIAGodwV6w2R7-217">
          <mxGeometry y="60" width="180" height="60" as="geometry" />
        </mxCell>
        <mxCell id="_K0BIjXZIAGodwV6w2R7-223" value="1" style="shape=partialRectangle;html=1;whiteSpace=wrap;connectable=0;overflow=hidden;top=0;left=0;bottom=0;right=0;pointerEvents=1;" vertex="1" parent="_K0BIjXZIAGodwV6w2R7-222">
          <mxGeometry width="60" height="60" as="geometry" />
        </mxCell>
        <mxCell id="_K0BIjXZIAGodwV6w2R7-224" value="1" style="shape=partialRectangle;html=1;whiteSpace=wrap;connectable=0;overflow=hidden;top=0;left=0;bottom=0;right=0;pointerEvents=1;fillColor=#dae8fc;strokeColor=#6c8ebf;" vertex="1" parent="_K0BIjXZIAGodwV6w2R7-222">
          <mxGeometry x="60" width="60" height="60" as="geometry" />
        </mxCell>
        <mxCell id="_K0BIjXZIAGodwV6w2R7-225" value="1" style="shape=partialRectangle;html=1;whiteSpace=wrap;connectable=0;overflow=hidden;top=0;left=0;bottom=0;right=0;pointerEvents=1;fillColor=#dae8fc;strokeColor=#6c8ebf;" vertex="1" parent="_K0BIjXZIAGodwV6w2R7-222">
          <mxGeometry x="120" width="60" height="60" as="geometry" />
        </mxCell>
        <mxCell id="_K0BIjXZIAGodwV6w2R7-226" value="" style="shape=partialRectangle;collapsible=0;dropTarget=0;pointerEvents=0;fillColor=none;top=0;left=0;bottom=0;right=0;points=[[0,0.5],[1,0.5]];portConstraint=eastwest;" vertex="1" parent="_K0BIjXZIAGodwV6w2R7-217">
          <mxGeometry y="120" width="180" height="60" as="geometry" />
        </mxCell>
        <mxCell id="_K0BIjXZIAGodwV6w2R7-227" value="1" style="shape=partialRectangle;html=1;whiteSpace=wrap;connectable=0;overflow=hidden;top=0;left=0;bottom=0;right=0;pointerEvents=1;" vertex="1" parent="_K0BIjXZIAGodwV6w2R7-226">
          <mxGeometry width="60" height="60" as="geometry" />
        </mxCell>
        <mxCell id="_K0BIjXZIAGodwV6w2R7-228" value="1" style="shape=partialRectangle;html=1;whiteSpace=wrap;connectable=0;overflow=hidden;top=0;left=0;bottom=0;right=0;pointerEvents=1;" vertex="1" parent="_K0BIjXZIAGodwV6w2R7-226">
          <mxGeometry x="60" width="60" height="60" as="geometry" />
        </mxCell>
        <mxCell id="_K0BIjXZIAGodwV6w2R7-229" value="1" style="shape=partialRectangle;html=1;whiteSpace=wrap;connectable=0;overflow=hidden;fillColor=none;top=0;left=0;bottom=0;right=0;pointerEvents=1;" vertex="1" parent="_K0BIjXZIAGodwV6w2R7-226">
          <mxGeometry x="120" width="60" height="60" as="geometry" />
        </mxCell>
        <mxCell id="_K0BIjXZIAGodwV6w2R7-230" value="" style="shape=table;startSize=0;container=1;collapsible=0;childLayout=tableLayout;" vertex="1" parent="1">
          <mxGeometry x="254" y="1580" width="180" height="180" as="geometry" />
        </mxCell>
        <mxCell id="_K0BIjXZIAGodwV6w2R7-231" value="" style="shape=partialRectangle;collapsible=0;dropTarget=0;pointerEvents=0;fillColor=none;top=0;left=0;bottom=0;right=0;points=[[0,0.5],[1,0.5]];portConstraint=eastwest;" vertex="1" parent="_K0BIjXZIAGodwV6w2R7-230">
          <mxGeometry width="180" height="60" as="geometry" />
        </mxCell>
        <mxCell id="_K0BIjXZIAGodwV6w2R7-232" value="1" style="shape=partialRectangle;html=1;whiteSpace=wrap;connectable=0;overflow=hidden;top=0;left=0;bottom=0;right=0;pointerEvents=1;fillColor=#f8cecc;strokeColor=#b85450;" vertex="1" parent="_K0BIjXZIAGodwV6w2R7-231">
          <mxGeometry width="60" height="60" as="geometry" />
        </mxCell>
        <mxCell id="_K0BIjXZIAGodwV6w2R7-233" value="1" style="shape=partialRectangle;html=1;whiteSpace=wrap;connectable=0;overflow=hidden;top=0;left=0;bottom=0;right=0;pointerEvents=1;fillColor=#f8cecc;strokeColor=#b85450;" vertex="1" parent="_K0BIjXZIAGodwV6w2R7-231">
          <mxGeometry x="60" width="60" height="60" as="geometry" />
        </mxCell>
        <mxCell id="_K0BIjXZIAGodwV6w2R7-234" value="1" style="shape=partialRectangle;html=1;whiteSpace=wrap;connectable=0;overflow=hidden;top=0;left=0;bottom=0;right=0;pointerEvents=1;" vertex="1" parent="_K0BIjXZIAGodwV6w2R7-231">
          <mxGeometry x="120" width="60" height="60" as="geometry" />
        </mxCell>
        <mxCell id="_K0BIjXZIAGodwV6w2R7-235" value="" style="shape=partialRectangle;collapsible=0;dropTarget=0;pointerEvents=0;fillColor=none;top=0;left=0;bottom=0;right=0;points=[[0,0.5],[1,0.5]];portConstraint=eastwest;" vertex="1" parent="_K0BIjXZIAGodwV6w2R7-230">
          <mxGeometry y="60" width="180" height="60" as="geometry" />
        </mxCell>
        <mxCell id="_K0BIjXZIAGodwV6w2R7-236" value="1" style="shape=partialRectangle;html=1;whiteSpace=wrap;connectable=0;overflow=hidden;top=0;left=0;bottom=0;right=0;pointerEvents=1;fillColor=#f8cecc;strokeColor=#b85450;" vertex="1" parent="_K0BIjXZIAGodwV6w2R7-235">
          <mxGeometry width="60" height="60" as="geometry" />
        </mxCell>
        <mxCell id="_K0BIjXZIAGodwV6w2R7-237" value="1" style="shape=partialRectangle;html=1;whiteSpace=wrap;connectable=0;overflow=hidden;top=0;left=0;bottom=0;right=0;pointerEvents=1;fillColor=#f8cecc;strokeColor=#b85450;" vertex="1" parent="_K0BIjXZIAGodwV6w2R7-235">
          <mxGeometry x="60" width="60" height="60" as="geometry" />
        </mxCell>
        <mxCell id="_K0BIjXZIAGodwV6w2R7-238" value="1" style="shape=partialRectangle;html=1;whiteSpace=wrap;connectable=0;overflow=hidden;top=0;left=0;bottom=0;right=0;pointerEvents=1;" vertex="1" parent="_K0BIjXZIAGodwV6w2R7-235">
          <mxGeometry x="120" width="60" height="60" as="geometry" />
        </mxCell>
        <mxCell id="_K0BIjXZIAGodwV6w2R7-239" value="" style="shape=partialRectangle;collapsible=0;dropTarget=0;pointerEvents=0;fillColor=none;top=0;left=0;bottom=0;right=0;points=[[0,0.5],[1,0.5]];portConstraint=eastwest;" vertex="1" parent="_K0BIjXZIAGodwV6w2R7-230">
          <mxGeometry y="120" width="180" height="60" as="geometry" />
        </mxCell>
        <mxCell id="_K0BIjXZIAGodwV6w2R7-240" value="1" style="shape=partialRectangle;html=1;whiteSpace=wrap;connectable=0;overflow=hidden;top=0;left=0;bottom=0;right=0;pointerEvents=1;" vertex="1" parent="_K0BIjXZIAGodwV6w2R7-239">
          <mxGeometry width="60" height="60" as="geometry" />
        </mxCell>
        <mxCell id="_K0BIjXZIAGodwV6w2R7-241" value="1" style="shape=partialRectangle;html=1;whiteSpace=wrap;connectable=0;overflow=hidden;top=0;left=0;bottom=0;right=0;pointerEvents=1;" vertex="1" parent="_K0BIjXZIAGodwV6w2R7-239">
          <mxGeometry x="60" width="60" height="60" as="geometry" />
        </mxCell>
        <mxCell id="_K0BIjXZIAGodwV6w2R7-242" value="1" style="shape=partialRectangle;html=1;whiteSpace=wrap;connectable=0;overflow=hidden;fillColor=none;top=0;left=0;bottom=0;right=0;pointerEvents=1;" vertex="1" parent="_K0BIjXZIAGodwV6w2R7-239">
          <mxGeometry x="120" width="60" height="60" as="geometry" />
        </mxCell>
        <mxCell id="_K0BIjXZIAGodwV6w2R7-243" value="" style="shape=table;startSize=0;container=1;collapsible=0;childLayout=tableLayout;" vertex="1" parent="1">
          <mxGeometry x="474" y="1580" width="180" height="180" as="geometry" />
        </mxCell>
        <mxCell id="_K0BIjXZIAGodwV6w2R7-244" value="" style="shape=partialRectangle;collapsible=0;dropTarget=0;pointerEvents=0;fillColor=none;top=0;left=0;bottom=0;right=0;points=[[0,0.5],[1,0.5]];portConstraint=eastwest;" vertex="1" parent="_K0BIjXZIAGodwV6w2R7-243">
          <mxGeometry width="180" height="60" as="geometry" />
        </mxCell>
        <mxCell id="_K0BIjXZIAGodwV6w2R7-245" value="1" style="shape=partialRectangle;html=1;whiteSpace=wrap;connectable=0;overflow=hidden;top=0;left=0;bottom=0;right=0;pointerEvents=1;" vertex="1" parent="_K0BIjXZIAGodwV6w2R7-244">
          <mxGeometry width="60" height="60" as="geometry" />
        </mxCell>
        <mxCell id="_K0BIjXZIAGodwV6w2R7-246" value="1" style="shape=partialRectangle;html=1;whiteSpace=wrap;connectable=0;overflow=hidden;top=0;left=0;bottom=0;right=0;pointerEvents=1;" vertex="1" parent="_K0BIjXZIAGodwV6w2R7-244">
          <mxGeometry x="60" width="60" height="60" as="geometry" />
        </mxCell>
        <mxCell id="_K0BIjXZIAGodwV6w2R7-247" value="1" style="shape=partialRectangle;html=1;whiteSpace=wrap;connectable=0;overflow=hidden;top=0;left=0;bottom=0;right=0;pointerEvents=1;" vertex="1" parent="_K0BIjXZIAGodwV6w2R7-244">
          <mxGeometry x="120" width="60" height="60" as="geometry" />
        </mxCell>
        <mxCell id="_K0BIjXZIAGodwV6w2R7-248" value="" style="shape=partialRectangle;collapsible=0;dropTarget=0;pointerEvents=0;fillColor=none;top=0;left=0;bottom=0;right=0;points=[[0,0.5],[1,0.5]];portConstraint=eastwest;" vertex="1" parent="_K0BIjXZIAGodwV6w2R7-243">
          <mxGeometry y="60" width="180" height="60" as="geometry" />
        </mxCell>
        <mxCell id="_K0BIjXZIAGodwV6w2R7-249" value="1" style="shape=partialRectangle;html=1;whiteSpace=wrap;connectable=0;overflow=hidden;top=0;left=0;bottom=0;right=0;pointerEvents=1;fillColor=#d5e8d4;strokeColor=#82b366;" vertex="1" parent="_K0BIjXZIAGodwV6w2R7-248">
          <mxGeometry width="60" height="60" as="geometry" />
        </mxCell>
        <mxCell id="_K0BIjXZIAGodwV6w2R7-250" value="1" style="shape=partialRectangle;html=1;whiteSpace=wrap;connectable=0;overflow=hidden;top=0;left=0;bottom=0;right=0;pointerEvents=1;fillColor=#d5e8d4;strokeColor=#82b366;" vertex="1" parent="_K0BIjXZIAGodwV6w2R7-248">
          <mxGeometry x="60" width="60" height="60" as="geometry" />
        </mxCell>
        <mxCell id="_K0BIjXZIAGodwV6w2R7-251" value="1" style="shape=partialRectangle;html=1;whiteSpace=wrap;connectable=0;overflow=hidden;top=0;left=0;bottom=0;right=0;pointerEvents=1;" vertex="1" parent="_K0BIjXZIAGodwV6w2R7-248">
          <mxGeometry x="120" width="60" height="60" as="geometry" />
        </mxCell>
        <mxCell id="_K0BIjXZIAGodwV6w2R7-252" value="" style="shape=partialRectangle;collapsible=0;dropTarget=0;pointerEvents=0;fillColor=none;top=0;left=0;bottom=0;right=0;points=[[0,0.5],[1,0.5]];portConstraint=eastwest;" vertex="1" parent="_K0BIjXZIAGodwV6w2R7-243">
          <mxGeometry y="120" width="180" height="60" as="geometry" />
        </mxCell>
        <mxCell id="_K0BIjXZIAGodwV6w2R7-253" value="1" style="shape=partialRectangle;html=1;whiteSpace=wrap;connectable=0;overflow=hidden;top=0;left=0;bottom=0;right=0;pointerEvents=1;fillColor=#d5e8d4;strokeColor=#82b366;" vertex="1" parent="_K0BIjXZIAGodwV6w2R7-252">
          <mxGeometry width="60" height="60" as="geometry" />
        </mxCell>
        <mxCell id="_K0BIjXZIAGodwV6w2R7-254" value="1" style="shape=partialRectangle;html=1;whiteSpace=wrap;connectable=0;overflow=hidden;top=0;left=0;bottom=0;right=0;pointerEvents=1;fillColor=#d5e8d4;strokeColor=#82b366;" vertex="1" parent="_K0BIjXZIAGodwV6w2R7-252">
          <mxGeometry x="60" width="60" height="60" as="geometry" />
        </mxCell>
        <mxCell id="_K0BIjXZIAGodwV6w2R7-255" value="1" style="shape=partialRectangle;html=1;whiteSpace=wrap;connectable=0;overflow=hidden;fillColor=none;top=0;left=0;bottom=0;right=0;pointerEvents=1;" vertex="1" parent="_K0BIjXZIAGodwV6w2R7-252">
          <mxGeometry x="120" width="60" height="60" as="geometry" />
        </mxCell>
        <mxCell id="_K0BIjXZIAGodwV6w2R7-256" value="" style="shape=table;startSize=0;container=1;collapsible=0;childLayout=tableLayout;" vertex="1" parent="1">
          <mxGeometry x="64" y="1830" width="120" height="160" as="geometry" />
        </mxCell>
        <mxCell id="_K0BIjXZIAGodwV6w2R7-257" value="" style="shape=partialRectangle;collapsible=0;dropTarget=0;pointerEvents=0;fillColor=none;top=0;left=0;bottom=0;right=0;points=[[0,0.5],[1,0.5]];portConstraint=eastwest;" vertex="1" parent="_K0BIjXZIAGodwV6w2R7-256">
          <mxGeometry width="120" height="40" as="geometry" />
        </mxCell>
        <mxCell id="_K0BIjXZIAGodwV6w2R7-258" value="blue" style="shape=partialRectangle;html=1;whiteSpace=wrap;connectable=0;overflow=hidden;fillColor=none;top=0;left=0;bottom=0;right=0;pointerEvents=1;" vertex="1" parent="_K0BIjXZIAGodwV6w2R7-257">
          <mxGeometry width="60" height="40" as="geometry" />
        </mxCell>
        <mxCell id="_K0BIjXZIAGodwV6w2R7-259" value="2" style="shape=partialRectangle;html=1;whiteSpace=wrap;connectable=0;overflow=hidden;fillColor=none;top=0;left=0;bottom=0;right=0;pointerEvents=1;" vertex="1" parent="_K0BIjXZIAGodwV6w2R7-257">
          <mxGeometry x="60" width="60" height="40" as="geometry" />
        </mxCell>
        <mxCell id="_K0BIjXZIAGodwV6w2R7-260" value="" style="shape=partialRectangle;collapsible=0;dropTarget=0;pointerEvents=0;fillColor=none;top=0;left=0;bottom=0;right=0;points=[[0,0.5],[1,0.5]];portConstraint=eastwest;" vertex="1" parent="_K0BIjXZIAGodwV6w2R7-256">
          <mxGeometry y="40" width="120" height="40" as="geometry" />
        </mxCell>
        <mxCell id="_K0BIjXZIAGodwV6w2R7-261" value="green" style="shape=partialRectangle;html=1;whiteSpace=wrap;connectable=0;overflow=hidden;fillColor=none;top=0;left=0;bottom=0;right=0;pointerEvents=1;" vertex="1" parent="_K0BIjXZIAGodwV6w2R7-260">
          <mxGeometry width="60" height="40" as="geometry" />
        </mxCell>
        <mxCell id="_K0BIjXZIAGodwV6w2R7-262" value="2" style="shape=partialRectangle;html=1;whiteSpace=wrap;connectable=0;overflow=hidden;fillColor=none;top=0;left=0;bottom=0;right=0;pointerEvents=1;" vertex="1" parent="_K0BIjXZIAGodwV6w2R7-260">
          <mxGeometry x="60" width="60" height="40" as="geometry" />
        </mxCell>
        <mxCell id="_K0BIjXZIAGodwV6w2R7-263" value="" style="shape=partialRectangle;collapsible=0;dropTarget=0;pointerEvents=0;fillColor=none;top=0;left=0;bottom=0;right=0;points=[[0,0.5],[1,0.5]];portConstraint=eastwest;" vertex="1" parent="_K0BIjXZIAGodwV6w2R7-256">
          <mxGeometry y="80" width="120" height="40" as="geometry" />
        </mxCell>
        <mxCell id="_K0BIjXZIAGodwV6w2R7-264" value="pink" style="shape=partialRectangle;html=1;whiteSpace=wrap;connectable=0;overflow=hidden;fillColor=none;top=0;left=0;bottom=0;right=0;pointerEvents=1;" vertex="1" parent="_K0BIjXZIAGodwV6w2R7-263">
          <mxGeometry width="60" height="40" as="geometry" />
        </mxCell>
        <mxCell id="_K0BIjXZIAGodwV6w2R7-265" value="2" style="shape=partialRectangle;html=1;whiteSpace=wrap;connectable=0;overflow=hidden;fillColor=none;top=0;left=0;bottom=0;right=0;pointerEvents=1;" vertex="1" parent="_K0BIjXZIAGodwV6w2R7-263">
          <mxGeometry x="60" width="60" height="40" as="geometry" />
        </mxCell>
        <mxCell id="_K0BIjXZIAGodwV6w2R7-266" style="shape=partialRectangle;collapsible=0;dropTarget=0;pointerEvents=0;fillColor=none;top=0;left=0;bottom=0;right=0;points=[[0,0.5],[1,0.5]];portConstraint=eastwest;" vertex="1" parent="_K0BIjXZIAGodwV6w2R7-256">
          <mxGeometry y="120" width="120" height="40" as="geometry" />
        </mxCell>
        <mxCell id="_K0BIjXZIAGodwV6w2R7-267" value="x,y" style="shape=partialRectangle;html=1;whiteSpace=wrap;connectable=0;overflow=hidden;fillColor=none;top=0;left=0;bottom=0;right=0;pointerEvents=1;" vertex="1" parent="_K0BIjXZIAGodwV6w2R7-266">
          <mxGeometry width="60" height="40" as="geometry" />
        </mxCell>
        <mxCell id="_K0BIjXZIAGodwV6w2R7-268" value="3" style="shape=partialRectangle;html=1;whiteSpace=wrap;connectable=0;overflow=hidden;fillColor=none;top=0;left=0;bottom=0;right=0;pointerEvents=1;" vertex="1" parent="_K0BIjXZIAGodwV6w2R7-266">
          <mxGeometry x="60" width="60" height="40" as="geometry" />
        </mxCell>
        <mxCell id="_K0BIjXZIAGodwV6w2R7-269" value="" style="shape=table;startSize=0;container=1;collapsible=0;childLayout=tableLayout;" vertex="1" parent="1">
          <mxGeometry x="298" y="1830" width="120" height="160" as="geometry" />
        </mxCell>
        <mxCell id="_K0BIjXZIAGodwV6w2R7-270" value="" style="shape=partialRectangle;collapsible=0;dropTarget=0;pointerEvents=0;fillColor=none;top=0;left=0;bottom=0;right=0;points=[[0,0.5],[1,0.5]];portConstraint=eastwest;" vertex="1" parent="_K0BIjXZIAGodwV6w2R7-269">
          <mxGeometry width="120" height="40" as="geometry" />
        </mxCell>
        <mxCell id="_K0BIjXZIAGodwV6w2R7-271" value="blue" style="shape=partialRectangle;html=1;whiteSpace=wrap;connectable=0;overflow=hidden;fillColor=none;top=0;left=0;bottom=0;right=0;pointerEvents=1;" vertex="1" parent="_K0BIjXZIAGodwV6w2R7-270">
          <mxGeometry width="60" height="40" as="geometry" />
        </mxCell>
        <mxCell id="_K0BIjXZIAGodwV6w2R7-272" value="2" style="shape=partialRectangle;html=1;whiteSpace=wrap;connectable=0;overflow=hidden;fillColor=none;top=0;left=0;bottom=0;right=0;pointerEvents=1;" vertex="1" parent="_K0BIjXZIAGodwV6w2R7-270">
          <mxGeometry x="60" width="60" height="40" as="geometry" />
        </mxCell>
        <mxCell id="_K0BIjXZIAGodwV6w2R7-273" value="" style="shape=partialRectangle;collapsible=0;dropTarget=0;pointerEvents=0;fillColor=none;top=0;left=0;bottom=0;right=0;points=[[0,0.5],[1,0.5]];portConstraint=eastwest;" vertex="1" parent="_K0BIjXZIAGodwV6w2R7-269">
          <mxGeometry y="40" width="120" height="40" as="geometry" />
        </mxCell>
        <mxCell id="_K0BIjXZIAGodwV6w2R7-274" value="green" style="shape=partialRectangle;html=1;whiteSpace=wrap;connectable=0;overflow=hidden;fillColor=none;top=0;left=0;bottom=0;right=0;pointerEvents=1;" vertex="1" parent="_K0BIjXZIAGodwV6w2R7-273">
          <mxGeometry width="60" height="40" as="geometry" />
        </mxCell>
        <mxCell id="_K0BIjXZIAGodwV6w2R7-275" value="2" style="shape=partialRectangle;html=1;whiteSpace=wrap;connectable=0;overflow=hidden;fillColor=none;top=0;left=0;bottom=0;right=0;pointerEvents=1;" vertex="1" parent="_K0BIjXZIAGodwV6w2R7-273">
          <mxGeometry x="60" width="60" height="40" as="geometry" />
        </mxCell>
        <mxCell id="_K0BIjXZIAGodwV6w2R7-276" value="" style="shape=partialRectangle;collapsible=0;dropTarget=0;pointerEvents=0;fillColor=none;top=0;left=0;bottom=0;right=0;points=[[0,0.5],[1,0.5]];portConstraint=eastwest;" vertex="1" parent="_K0BIjXZIAGodwV6w2R7-269">
          <mxGeometry y="80" width="120" height="40" as="geometry" />
        </mxCell>
        <mxCell id="_K0BIjXZIAGodwV6w2R7-277" value="pink" style="shape=partialRectangle;html=1;whiteSpace=wrap;connectable=0;overflow=hidden;fillColor=none;top=0;left=0;bottom=0;right=0;pointerEvents=1;" vertex="1" parent="_K0BIjXZIAGodwV6w2R7-276">
          <mxGeometry width="60" height="40" as="geometry" />
        </mxCell>
        <mxCell id="_K0BIjXZIAGodwV6w2R7-278" value="2" style="shape=partialRectangle;html=1;whiteSpace=wrap;connectable=0;overflow=hidden;fillColor=none;top=0;left=0;bottom=0;right=0;pointerEvents=1;" vertex="1" parent="_K0BIjXZIAGodwV6w2R7-276">
          <mxGeometry x="60" width="60" height="40" as="geometry" />
        </mxCell>
        <mxCell id="_K0BIjXZIAGodwV6w2R7-279" style="shape=partialRectangle;collapsible=0;dropTarget=0;pointerEvents=0;fillColor=none;top=0;left=0;bottom=0;right=0;points=[[0,0.5],[1,0.5]];portConstraint=eastwest;" vertex="1" parent="_K0BIjXZIAGodwV6w2R7-269">
          <mxGeometry y="120" width="120" height="40" as="geometry" />
        </mxCell>
        <mxCell id="_K0BIjXZIAGodwV6w2R7-280" value="x,y" style="shape=partialRectangle;html=1;whiteSpace=wrap;connectable=0;overflow=hidden;fillColor=none;top=0;left=0;bottom=0;right=0;pointerEvents=1;" vertex="1" parent="_K0BIjXZIAGodwV6w2R7-279">
          <mxGeometry width="60" height="40" as="geometry" />
        </mxCell>
        <mxCell id="_K0BIjXZIAGodwV6w2R7-281" value="3" style="shape=partialRectangle;html=1;whiteSpace=wrap;connectable=0;overflow=hidden;fillColor=none;top=0;left=0;bottom=0;right=0;pointerEvents=1;" vertex="1" parent="_K0BIjXZIAGodwV6w2R7-279">
          <mxGeometry x="60" width="60" height="40" as="geometry" />
        </mxCell>
        <mxCell id="_K0BIjXZIAGodwV6w2R7-282" value="" style="shape=table;startSize=0;container=1;collapsible=0;childLayout=tableLayout;" vertex="1" parent="1">
          <mxGeometry x="524" y="1830" width="120" height="160" as="geometry" />
        </mxCell>
        <mxCell id="_K0BIjXZIAGodwV6w2R7-283" value="" style="shape=partialRectangle;collapsible=0;dropTarget=0;pointerEvents=0;fillColor=none;top=0;left=0;bottom=0;right=0;points=[[0,0.5],[1,0.5]];portConstraint=eastwest;" vertex="1" parent="_K0BIjXZIAGodwV6w2R7-282">
          <mxGeometry width="120" height="40" as="geometry" />
        </mxCell>
        <mxCell id="_K0BIjXZIAGodwV6w2R7-284" value="blue" style="shape=partialRectangle;html=1;whiteSpace=wrap;connectable=0;overflow=hidden;fillColor=none;top=0;left=0;bottom=0;right=0;pointerEvents=1;" vertex="1" parent="_K0BIjXZIAGodwV6w2R7-283">
          <mxGeometry width="60" height="40" as="geometry" />
        </mxCell>
        <mxCell id="_K0BIjXZIAGodwV6w2R7-285" value="2" style="shape=partialRectangle;html=1;whiteSpace=wrap;connectable=0;overflow=hidden;fillColor=none;top=0;left=0;bottom=0;right=0;pointerEvents=1;" vertex="1" parent="_K0BIjXZIAGodwV6w2R7-283">
          <mxGeometry x="60" width="60" height="40" as="geometry" />
        </mxCell>
        <mxCell id="_K0BIjXZIAGodwV6w2R7-286" value="" style="shape=partialRectangle;collapsible=0;dropTarget=0;pointerEvents=0;fillColor=none;top=0;left=0;bottom=0;right=0;points=[[0,0.5],[1,0.5]];portConstraint=eastwest;" vertex="1" parent="_K0BIjXZIAGodwV6w2R7-282">
          <mxGeometry y="40" width="120" height="40" as="geometry" />
        </mxCell>
        <mxCell id="_K0BIjXZIAGodwV6w2R7-287" value="green" style="shape=partialRectangle;html=1;whiteSpace=wrap;connectable=0;overflow=hidden;fillColor=none;top=0;left=0;bottom=0;right=0;pointerEvents=1;" vertex="1" parent="_K0BIjXZIAGodwV6w2R7-286">
          <mxGeometry width="60" height="40" as="geometry" />
        </mxCell>
        <mxCell id="_K0BIjXZIAGodwV6w2R7-288" value="2" style="shape=partialRectangle;html=1;whiteSpace=wrap;connectable=0;overflow=hidden;fillColor=none;top=0;left=0;bottom=0;right=0;pointerEvents=1;" vertex="1" parent="_K0BIjXZIAGodwV6w2R7-286">
          <mxGeometry x="60" width="60" height="40" as="geometry" />
        </mxCell>
        <mxCell id="_K0BIjXZIAGodwV6w2R7-289" value="" style="shape=partialRectangle;collapsible=0;dropTarget=0;pointerEvents=0;fillColor=none;top=0;left=0;bottom=0;right=0;points=[[0,0.5],[1,0.5]];portConstraint=eastwest;" vertex="1" parent="_K0BIjXZIAGodwV6w2R7-282">
          <mxGeometry y="80" width="120" height="40" as="geometry" />
        </mxCell>
        <mxCell id="_K0BIjXZIAGodwV6w2R7-290" value="pink" style="shape=partialRectangle;html=1;whiteSpace=wrap;connectable=0;overflow=hidden;fillColor=none;top=0;left=0;bottom=0;right=0;pointerEvents=1;" vertex="1" parent="_K0BIjXZIAGodwV6w2R7-289">
          <mxGeometry width="60" height="40" as="geometry" />
        </mxCell>
        <mxCell id="_K0BIjXZIAGodwV6w2R7-291" value="2" style="shape=partialRectangle;html=1;whiteSpace=wrap;connectable=0;overflow=hidden;fillColor=none;top=0;left=0;bottom=0;right=0;pointerEvents=1;" vertex="1" parent="_K0BIjXZIAGodwV6w2R7-289">
          <mxGeometry x="60" width="60" height="40" as="geometry" />
        </mxCell>
        <mxCell id="_K0BIjXZIAGodwV6w2R7-292" style="shape=partialRectangle;collapsible=0;dropTarget=0;pointerEvents=0;fillColor=none;top=0;left=0;bottom=0;right=0;points=[[0,0.5],[1,0.5]];portConstraint=eastwest;" vertex="1" parent="_K0BIjXZIAGodwV6w2R7-282">
          <mxGeometry y="120" width="120" height="40" as="geometry" />
        </mxCell>
        <mxCell id="_K0BIjXZIAGodwV6w2R7-293" value="x,y" style="shape=partialRectangle;html=1;whiteSpace=wrap;connectable=0;overflow=hidden;fillColor=none;top=0;left=0;bottom=0;right=0;pointerEvents=1;" vertex="1" parent="_K0BIjXZIAGodwV6w2R7-292">
          <mxGeometry width="60" height="40" as="geometry" />
        </mxCell>
        <mxCell id="_K0BIjXZIAGodwV6w2R7-294" value="3" style="shape=partialRectangle;html=1;whiteSpace=wrap;connectable=0;overflow=hidden;fillColor=none;top=0;left=0;bottom=0;right=0;pointerEvents=1;" vertex="1" parent="_K0BIjXZIAGodwV6w2R7-292">
          <mxGeometry x="60" width="60" height="40" as="geometry" />
        </mxCell>
        <mxCell id="_K0BIjXZIAGodwV6w2R7-295" value="" style="rounded=0;whiteSpace=wrap;html=1;shadow=0;sketch=0;glass=0;fillColor=none;" vertex="1" parent="1">
          <mxGeometry x="4" y="1520" width="700" height="520" as="geometry" />
        </mxCell>
        <mxCell id="_K0BIjXZIAGodwV6w2R7-296" value="min side length = 0" style="text;html=1;align=center;verticalAlign=middle;resizable=0;points=[];autosize=1;strokeColor=none;" vertex="1" parent="1">
          <mxGeometry x="20" y="2100" width="120" height="20" as="geometry" />
        </mxCell>
        <mxCell id="_K0BIjXZIAGodwV6w2R7-297" value="" style="shape=table;startSize=0;container=1;collapsible=0;childLayout=tableLayout;" vertex="1" parent="1">
          <mxGeometry x="484" y="2158" width="180" height="180" as="geometry" />
        </mxCell>
        <mxCell id="_K0BIjXZIAGodwV6w2R7-298" value="" style="shape=partialRectangle;collapsible=0;dropTarget=0;pointerEvents=0;fillColor=none;top=0;left=0;bottom=0;right=0;points=[[0,0.5],[1,0.5]];portConstraint=eastwest;" vertex="1" parent="_K0BIjXZIAGodwV6w2R7-297">
          <mxGeometry width="180" height="60" as="geometry" />
        </mxCell>
        <mxCell id="_K0BIjXZIAGodwV6w2R7-299" value="1" style="shape=partialRectangle;html=1;whiteSpace=wrap;connectable=0;overflow=hidden;top=0;left=0;bottom=0;right=0;pointerEvents=1;" vertex="1" parent="_K0BIjXZIAGodwV6w2R7-298">
          <mxGeometry width="60" height="60" as="geometry" />
        </mxCell>
        <mxCell id="_K0BIjXZIAGodwV6w2R7-300" value="1" style="shape=partialRectangle;html=1;whiteSpace=wrap;connectable=0;overflow=hidden;top=0;left=0;bottom=0;right=0;pointerEvents=1;" vertex="1" parent="_K0BIjXZIAGodwV6w2R7-298">
          <mxGeometry x="60" width="60" height="60" as="geometry" />
        </mxCell>
        <mxCell id="_K0BIjXZIAGodwV6w2R7-301" value="1" style="shape=partialRectangle;html=1;whiteSpace=wrap;connectable=0;overflow=hidden;top=0;left=0;bottom=0;right=0;pointerEvents=1;" vertex="1" parent="_K0BIjXZIAGodwV6w2R7-298">
          <mxGeometry x="120" width="60" height="60" as="geometry" />
        </mxCell>
        <mxCell id="_K0BIjXZIAGodwV6w2R7-302" value="" style="shape=partialRectangle;collapsible=0;dropTarget=0;pointerEvents=0;fillColor=none;top=0;left=0;bottom=0;right=0;points=[[0,0.5],[1,0.5]];portConstraint=eastwest;" vertex="1" parent="_K0BIjXZIAGodwV6w2R7-297">
          <mxGeometry y="60" width="180" height="60" as="geometry" />
        </mxCell>
        <mxCell id="_K0BIjXZIAGodwV6w2R7-303" value="1" style="shape=partialRectangle;html=1;whiteSpace=wrap;connectable=0;overflow=hidden;top=0;left=0;bottom=0;right=0;pointerEvents=1;fillColor=#d5e8d4;strokeColor=#82b366;" vertex="1" parent="_K0BIjXZIAGodwV6w2R7-302">
          <mxGeometry width="60" height="60" as="geometry" />
        </mxCell>
        <mxCell id="_K0BIjXZIAGodwV6w2R7-304" value="1" style="shape=partialRectangle;html=1;whiteSpace=wrap;connectable=0;overflow=hidden;top=0;left=0;bottom=0;right=0;pointerEvents=1;fillColor=#d5e8d4;strokeColor=#82b366;" vertex="1" parent="_K0BIjXZIAGodwV6w2R7-302">
          <mxGeometry x="60" width="60" height="60" as="geometry" />
        </mxCell>
        <mxCell id="_K0BIjXZIAGodwV6w2R7-305" value="1" style="shape=partialRectangle;html=1;whiteSpace=wrap;connectable=0;overflow=hidden;top=0;left=0;bottom=0;right=0;pointerEvents=1;" vertex="1" parent="_K0BIjXZIAGodwV6w2R7-302">
          <mxGeometry x="120" width="60" height="60" as="geometry" />
        </mxCell>
        <mxCell id="_K0BIjXZIAGodwV6w2R7-306" value="" style="shape=partialRectangle;collapsible=0;dropTarget=0;pointerEvents=0;fillColor=none;top=0;left=0;bottom=0;right=0;points=[[0,0.5],[1,0.5]];portConstraint=eastwest;" vertex="1" parent="_K0BIjXZIAGodwV6w2R7-297">
          <mxGeometry y="120" width="180" height="60" as="geometry" />
        </mxCell>
        <mxCell id="_K0BIjXZIAGodwV6w2R7-307" value="1" style="shape=partialRectangle;html=1;whiteSpace=wrap;connectable=0;overflow=hidden;top=0;left=0;bottom=0;right=0;pointerEvents=1;fillColor=#d5e8d4;strokeColor=#82b366;" vertex="1" parent="_K0BIjXZIAGodwV6w2R7-306">
          <mxGeometry width="60" height="60" as="geometry" />
        </mxCell>
        <mxCell id="_K0BIjXZIAGodwV6w2R7-308" value="0" style="shape=partialRectangle;html=1;whiteSpace=wrap;connectable=0;overflow=hidden;top=0;left=0;bottom=0;right=0;pointerEvents=1;fillColor=#d5e8d4;strokeColor=#82b366;" vertex="1" parent="_K0BIjXZIAGodwV6w2R7-306">
          <mxGeometry x="60" width="60" height="60" as="geometry" />
        </mxCell>
        <mxCell id="_K0BIjXZIAGodwV6w2R7-309" value="1" style="shape=partialRectangle;html=1;whiteSpace=wrap;connectable=0;overflow=hidden;fillColor=none;top=0;left=0;bottom=0;right=0;pointerEvents=1;" vertex="1" parent="_K0BIjXZIAGodwV6w2R7-306">
          <mxGeometry x="120" width="60" height="60" as="geometry" />
        </mxCell>
        <mxCell id="_K0BIjXZIAGodwV6w2R7-310" value="" style="shape=table;startSize=0;container=1;collapsible=0;childLayout=tableLayout;" vertex="1" parent="1">
          <mxGeometry x="250" y="2160" width="180" height="180" as="geometry" />
        </mxCell>
        <mxCell id="_K0BIjXZIAGodwV6w2R7-311" value="" style="shape=partialRectangle;collapsible=0;dropTarget=0;pointerEvents=0;fillColor=none;top=0;left=0;bottom=0;right=0;points=[[0,0.5],[1,0.5]];portConstraint=eastwest;" vertex="1" parent="_K0BIjXZIAGodwV6w2R7-310">
          <mxGeometry width="180" height="60" as="geometry" />
        </mxCell>
        <mxCell id="_K0BIjXZIAGodwV6w2R7-312" value="1" style="shape=partialRectangle;html=1;whiteSpace=wrap;connectable=0;overflow=hidden;top=0;left=0;bottom=0;right=0;pointerEvents=1;fillColor=#f8cecc;strokeColor=#b85450;" vertex="1" parent="_K0BIjXZIAGodwV6w2R7-311">
          <mxGeometry width="60" height="60" as="geometry" />
        </mxCell>
        <mxCell id="_K0BIjXZIAGodwV6w2R7-313" value="1" style="shape=partialRectangle;html=1;whiteSpace=wrap;connectable=0;overflow=hidden;top=0;left=0;bottom=0;right=0;pointerEvents=1;fillColor=#f8cecc;strokeColor=#b85450;" vertex="1" parent="_K0BIjXZIAGodwV6w2R7-311">
          <mxGeometry x="60" width="60" height="60" as="geometry" />
        </mxCell>
        <mxCell id="_K0BIjXZIAGodwV6w2R7-314" value="1" style="shape=partialRectangle;html=1;whiteSpace=wrap;connectable=0;overflow=hidden;top=0;left=0;bottom=0;right=0;pointerEvents=1;" vertex="1" parent="_K0BIjXZIAGodwV6w2R7-311">
          <mxGeometry x="120" width="60" height="60" as="geometry" />
        </mxCell>
        <mxCell id="_K0BIjXZIAGodwV6w2R7-315" value="" style="shape=partialRectangle;collapsible=0;dropTarget=0;pointerEvents=0;fillColor=none;top=0;left=0;bottom=0;right=0;points=[[0,0.5],[1,0.5]];portConstraint=eastwest;" vertex="1" parent="_K0BIjXZIAGodwV6w2R7-310">
          <mxGeometry y="60" width="180" height="60" as="geometry" />
        </mxCell>
        <mxCell id="_K0BIjXZIAGodwV6w2R7-316" value="1" style="shape=partialRectangle;html=1;whiteSpace=wrap;connectable=0;overflow=hidden;top=0;left=0;bottom=0;right=0;pointerEvents=1;fillColor=#f8cecc;strokeColor=#b85450;" vertex="1" parent="_K0BIjXZIAGodwV6w2R7-315">
          <mxGeometry width="60" height="60" as="geometry" />
        </mxCell>
        <mxCell id="_K0BIjXZIAGodwV6w2R7-317" value="0" style="shape=partialRectangle;html=1;whiteSpace=wrap;connectable=0;overflow=hidden;top=0;left=0;bottom=0;right=0;pointerEvents=1;fillColor=#f8cecc;strokeColor=#b85450;" vertex="1" parent="_K0BIjXZIAGodwV6w2R7-315">
          <mxGeometry x="60" width="60" height="60" as="geometry" />
        </mxCell>
        <mxCell id="_K0BIjXZIAGodwV6w2R7-318" value="1" style="shape=partialRectangle;html=1;whiteSpace=wrap;connectable=0;overflow=hidden;top=0;left=0;bottom=0;right=0;pointerEvents=1;" vertex="1" parent="_K0BIjXZIAGodwV6w2R7-315">
          <mxGeometry x="120" width="60" height="60" as="geometry" />
        </mxCell>
        <mxCell id="_K0BIjXZIAGodwV6w2R7-319" value="" style="shape=partialRectangle;collapsible=0;dropTarget=0;pointerEvents=0;fillColor=none;top=0;left=0;bottom=0;right=0;points=[[0,0.5],[1,0.5]];portConstraint=eastwest;" vertex="1" parent="_K0BIjXZIAGodwV6w2R7-310">
          <mxGeometry y="120" width="180" height="60" as="geometry" />
        </mxCell>
        <mxCell id="_K0BIjXZIAGodwV6w2R7-320" value="1" style="shape=partialRectangle;html=1;whiteSpace=wrap;connectable=0;overflow=hidden;top=0;left=0;bottom=0;right=0;pointerEvents=1;" vertex="1" parent="_K0BIjXZIAGodwV6w2R7-319">
          <mxGeometry width="60" height="60" as="geometry" />
        </mxCell>
        <mxCell id="_K0BIjXZIAGodwV6w2R7-321" value="1" style="shape=partialRectangle;html=1;whiteSpace=wrap;connectable=0;overflow=hidden;top=0;left=0;bottom=0;right=0;pointerEvents=1;" vertex="1" parent="_K0BIjXZIAGodwV6w2R7-319">
          <mxGeometry x="60" width="60" height="60" as="geometry" />
        </mxCell>
        <mxCell id="_K0BIjXZIAGodwV6w2R7-322" value="1" style="shape=partialRectangle;html=1;whiteSpace=wrap;connectable=0;overflow=hidden;fillColor=none;top=0;left=0;bottom=0;right=0;pointerEvents=1;" vertex="1" parent="_K0BIjXZIAGodwV6w2R7-319">
          <mxGeometry x="120" width="60" height="60" as="geometry" />
        </mxCell>
        <mxCell id="_K0BIjXZIAGodwV6w2R7-323" value="" style="shape=table;startSize=0;container=1;collapsible=0;childLayout=tableLayout;" vertex="1" parent="1">
          <mxGeometry x="34" y="2158" width="180" height="180" as="geometry" />
        </mxCell>
        <mxCell id="_K0BIjXZIAGodwV6w2R7-324" value="" style="shape=partialRectangle;collapsible=0;dropTarget=0;pointerEvents=0;fillColor=none;top=0;left=0;bottom=0;right=0;points=[[0,0.5],[1,0.5]];portConstraint=eastwest;" vertex="1" parent="_K0BIjXZIAGodwV6w2R7-323">
          <mxGeometry width="180" height="60" as="geometry" />
        </mxCell>
        <mxCell id="_K0BIjXZIAGodwV6w2R7-325" value="1" style="shape=partialRectangle;html=1;whiteSpace=wrap;connectable=0;overflow=hidden;top=0;left=0;bottom=0;right=0;pointerEvents=1;" vertex="1" parent="_K0BIjXZIAGodwV6w2R7-324">
          <mxGeometry width="60" height="60" as="geometry" />
        </mxCell>
        <mxCell id="_K0BIjXZIAGodwV6w2R7-326" value="1" style="shape=partialRectangle;html=1;whiteSpace=wrap;connectable=0;overflow=hidden;top=0;left=0;bottom=0;right=0;pointerEvents=1;fillColor=#dae8fc;strokeColor=#6c8ebf;" vertex="1" parent="_K0BIjXZIAGodwV6w2R7-324">
          <mxGeometry x="60" width="60" height="60" as="geometry" />
        </mxCell>
        <mxCell id="_K0BIjXZIAGodwV6w2R7-327" value="1" style="shape=partialRectangle;html=1;whiteSpace=wrap;connectable=0;overflow=hidden;top=0;left=0;bottom=0;right=0;pointerEvents=1;fillColor=#dae8fc;strokeColor=#6c8ebf;" vertex="1" parent="_K0BIjXZIAGodwV6w2R7-324">
          <mxGeometry x="120" width="60" height="60" as="geometry" />
        </mxCell>
        <mxCell id="_K0BIjXZIAGodwV6w2R7-328" value="" style="shape=partialRectangle;collapsible=0;dropTarget=0;pointerEvents=0;fillColor=none;top=0;left=0;bottom=0;right=0;points=[[0,0.5],[1,0.5]];portConstraint=eastwest;" vertex="1" parent="_K0BIjXZIAGodwV6w2R7-323">
          <mxGeometry y="60" width="180" height="60" as="geometry" />
        </mxCell>
        <mxCell id="_K0BIjXZIAGodwV6w2R7-329" value="1" style="shape=partialRectangle;html=1;whiteSpace=wrap;connectable=0;overflow=hidden;top=0;left=0;bottom=0;right=0;pointerEvents=1;" vertex="1" parent="_K0BIjXZIAGodwV6w2R7-328">
          <mxGeometry width="60" height="60" as="geometry" />
        </mxCell>
        <mxCell id="_K0BIjXZIAGodwV6w2R7-330" value="1" style="shape=partialRectangle;html=1;whiteSpace=wrap;connectable=0;overflow=hidden;top=0;left=0;bottom=0;right=0;pointerEvents=1;fillColor=#dae8fc;strokeColor=#6c8ebf;" vertex="1" parent="_K0BIjXZIAGodwV6w2R7-328">
          <mxGeometry x="60" width="60" height="60" as="geometry" />
        </mxCell>
        <mxCell id="_K0BIjXZIAGodwV6w2R7-331" value="0" style="shape=partialRectangle;html=1;whiteSpace=wrap;connectable=0;overflow=hidden;top=0;left=0;bottom=0;right=0;pointerEvents=1;fillColor=#dae8fc;strokeColor=#6c8ebf;" vertex="1" parent="_K0BIjXZIAGodwV6w2R7-328">
          <mxGeometry x="120" width="60" height="60" as="geometry" />
        </mxCell>
        <mxCell id="_K0BIjXZIAGodwV6w2R7-332" value="" style="shape=partialRectangle;collapsible=0;dropTarget=0;pointerEvents=0;fillColor=none;top=0;left=0;bottom=0;right=0;points=[[0,0.5],[1,0.5]];portConstraint=eastwest;" vertex="1" parent="_K0BIjXZIAGodwV6w2R7-323">
          <mxGeometry y="120" width="180" height="60" as="geometry" />
        </mxCell>
        <mxCell id="_K0BIjXZIAGodwV6w2R7-333" value="1" style="shape=partialRectangle;html=1;whiteSpace=wrap;connectable=0;overflow=hidden;top=0;left=0;bottom=0;right=0;pointerEvents=1;" vertex="1" parent="_K0BIjXZIAGodwV6w2R7-332">
          <mxGeometry width="60" height="60" as="geometry" />
        </mxCell>
        <mxCell id="_K0BIjXZIAGodwV6w2R7-334" value="1" style="shape=partialRectangle;html=1;whiteSpace=wrap;connectable=0;overflow=hidden;top=0;left=0;bottom=0;right=0;pointerEvents=1;" vertex="1" parent="_K0BIjXZIAGodwV6w2R7-332">
          <mxGeometry x="60" width="60" height="60" as="geometry" />
        </mxCell>
        <mxCell id="_K0BIjXZIAGodwV6w2R7-335" value="1" style="shape=partialRectangle;html=1;whiteSpace=wrap;connectable=0;overflow=hidden;fillColor=none;top=0;left=0;bottom=0;right=0;pointerEvents=1;" vertex="1" parent="_K0BIjXZIAGodwV6w2R7-332">
          <mxGeometry x="120" width="60" height="60" as="geometry" />
        </mxCell>
        <mxCell id="_K0BIjXZIAGodwV6w2R7-336" value="" style="shape=table;startSize=0;container=1;collapsible=0;childLayout=tableLayout;" vertex="1" parent="1">
          <mxGeometry x="60" y="2410" width="120" height="160" as="geometry" />
        </mxCell>
        <mxCell id="_K0BIjXZIAGodwV6w2R7-337" value="" style="shape=partialRectangle;collapsible=0;dropTarget=0;pointerEvents=0;fillColor=none;top=0;left=0;bottom=0;right=0;points=[[0,0.5],[1,0.5]];portConstraint=eastwest;" vertex="1" parent="_K0BIjXZIAGodwV6w2R7-336">
          <mxGeometry width="120" height="40" as="geometry" />
        </mxCell>
        <mxCell id="_K0BIjXZIAGodwV6w2R7-338" value="blue" style="shape=partialRectangle;html=1;whiteSpace=wrap;connectable=0;overflow=hidden;fillColor=none;top=0;left=0;bottom=0;right=0;pointerEvents=1;" vertex="1" parent="_K0BIjXZIAGodwV6w2R7-337">
          <mxGeometry width="60" height="40" as="geometry" />
        </mxCell>
        <mxCell id="_K0BIjXZIAGodwV6w2R7-339" value="0" style="shape=partialRectangle;html=1;whiteSpace=wrap;connectable=0;overflow=hidden;fillColor=none;top=0;left=0;bottom=0;right=0;pointerEvents=1;" vertex="1" parent="_K0BIjXZIAGodwV6w2R7-337">
          <mxGeometry x="60" width="60" height="40" as="geometry" />
        </mxCell>
        <mxCell id="_K0BIjXZIAGodwV6w2R7-340" value="" style="shape=partialRectangle;collapsible=0;dropTarget=0;pointerEvents=0;fillColor=none;top=0;left=0;bottom=0;right=0;points=[[0,0.5],[1,0.5]];portConstraint=eastwest;" vertex="1" parent="_K0BIjXZIAGodwV6w2R7-336">
          <mxGeometry y="40" width="120" height="40" as="geometry" />
        </mxCell>
        <mxCell id="_K0BIjXZIAGodwV6w2R7-341" value="green" style="shape=partialRectangle;html=1;whiteSpace=wrap;connectable=0;overflow=hidden;fillColor=none;top=0;left=0;bottom=0;right=0;pointerEvents=1;" vertex="1" parent="_K0BIjXZIAGodwV6w2R7-340">
          <mxGeometry width="60" height="40" as="geometry" />
        </mxCell>
        <mxCell id="_K0BIjXZIAGodwV6w2R7-342" value="2" style="shape=partialRectangle;html=1;whiteSpace=wrap;connectable=0;overflow=hidden;fillColor=none;top=0;left=0;bottom=0;right=0;pointerEvents=1;" vertex="1" parent="_K0BIjXZIAGodwV6w2R7-340">
          <mxGeometry x="60" width="60" height="40" as="geometry" />
        </mxCell>
        <mxCell id="_K0BIjXZIAGodwV6w2R7-343" value="" style="shape=partialRectangle;collapsible=0;dropTarget=0;pointerEvents=0;fillColor=none;top=0;left=0;bottom=0;right=0;points=[[0,0.5],[1,0.5]];portConstraint=eastwest;" vertex="1" parent="_K0BIjXZIAGodwV6w2R7-336">
          <mxGeometry y="80" width="120" height="40" as="geometry" />
        </mxCell>
        <mxCell id="_K0BIjXZIAGodwV6w2R7-344" value="pink" style="shape=partialRectangle;html=1;whiteSpace=wrap;connectable=0;overflow=hidden;fillColor=none;top=0;left=0;bottom=0;right=0;pointerEvents=1;" vertex="1" parent="_K0BIjXZIAGodwV6w2R7-343">
          <mxGeometry width="60" height="40" as="geometry" />
        </mxCell>
        <mxCell id="_K0BIjXZIAGodwV6w2R7-345" value="2" style="shape=partialRectangle;html=1;whiteSpace=wrap;connectable=0;overflow=hidden;fillColor=none;top=0;left=0;bottom=0;right=0;pointerEvents=1;" vertex="1" parent="_K0BIjXZIAGodwV6w2R7-343">
          <mxGeometry x="60" width="60" height="40" as="geometry" />
        </mxCell>
        <mxCell id="_K0BIjXZIAGodwV6w2R7-346" style="shape=partialRectangle;collapsible=0;dropTarget=0;pointerEvents=0;fillColor=none;top=0;left=0;bottom=0;right=0;points=[[0,0.5],[1,0.5]];portConstraint=eastwest;" vertex="1" parent="_K0BIjXZIAGodwV6w2R7-336">
          <mxGeometry y="120" width="120" height="40" as="geometry" />
        </mxCell>
        <mxCell id="_K0BIjXZIAGodwV6w2R7-347" value="x,y" style="shape=partialRectangle;html=1;whiteSpace=wrap;connectable=0;overflow=hidden;fillColor=none;top=0;left=0;bottom=0;right=0;pointerEvents=1;" vertex="1" parent="_K0BIjXZIAGodwV6w2R7-346">
          <mxGeometry width="60" height="40" as="geometry" />
        </mxCell>
        <mxCell id="_K0BIjXZIAGodwV6w2R7-348" value="1" style="shape=partialRectangle;html=1;whiteSpace=wrap;connectable=0;overflow=hidden;fillColor=none;top=0;left=0;bottom=0;right=0;pointerEvents=1;" vertex="1" parent="_K0BIjXZIAGodwV6w2R7-346">
          <mxGeometry x="60" width="60" height="40" as="geometry" />
        </mxCell>
        <mxCell id="_K0BIjXZIAGodwV6w2R7-349" value="" style="shape=table;startSize=0;container=1;collapsible=0;childLayout=tableLayout;" vertex="1" parent="1">
          <mxGeometry x="294" y="2410" width="120" height="160" as="geometry" />
        </mxCell>
        <mxCell id="_K0BIjXZIAGodwV6w2R7-350" value="" style="shape=partialRectangle;collapsible=0;dropTarget=0;pointerEvents=0;fillColor=none;top=0;left=0;bottom=0;right=0;points=[[0,0.5],[1,0.5]];portConstraint=eastwest;" vertex="1" parent="_K0BIjXZIAGodwV6w2R7-349">
          <mxGeometry width="120" height="40" as="geometry" />
        </mxCell>
        <mxCell id="_K0BIjXZIAGodwV6w2R7-351" value="blue" style="shape=partialRectangle;html=1;whiteSpace=wrap;connectable=0;overflow=hidden;fillColor=none;top=0;left=0;bottom=0;right=0;pointerEvents=1;" vertex="1" parent="_K0BIjXZIAGodwV6w2R7-350">
          <mxGeometry width="60" height="40" as="geometry" />
        </mxCell>
        <mxCell id="_K0BIjXZIAGodwV6w2R7-352" value="2" style="shape=partialRectangle;html=1;whiteSpace=wrap;connectable=0;overflow=hidden;fillColor=none;top=0;left=0;bottom=0;right=0;pointerEvents=1;" vertex="1" parent="_K0BIjXZIAGodwV6w2R7-350">
          <mxGeometry x="60" width="60" height="40" as="geometry" />
        </mxCell>
        <mxCell id="_K0BIjXZIAGodwV6w2R7-353" value="" style="shape=partialRectangle;collapsible=0;dropTarget=0;pointerEvents=0;fillColor=none;top=0;left=0;bottom=0;right=0;points=[[0,0.5],[1,0.5]];portConstraint=eastwest;" vertex="1" parent="_K0BIjXZIAGodwV6w2R7-349">
          <mxGeometry y="40" width="120" height="40" as="geometry" />
        </mxCell>
        <mxCell id="_K0BIjXZIAGodwV6w2R7-354" value="green" style="shape=partialRectangle;html=1;whiteSpace=wrap;connectable=0;overflow=hidden;fillColor=none;top=0;left=0;bottom=0;right=0;pointerEvents=1;" vertex="1" parent="_K0BIjXZIAGodwV6w2R7-353">
          <mxGeometry width="60" height="40" as="geometry" />
        </mxCell>
        <mxCell id="_K0BIjXZIAGodwV6w2R7-355" value="2" style="shape=partialRectangle;html=1;whiteSpace=wrap;connectable=0;overflow=hidden;fillColor=none;top=0;left=0;bottom=0;right=0;pointerEvents=1;" vertex="1" parent="_K0BIjXZIAGodwV6w2R7-353">
          <mxGeometry x="60" width="60" height="40" as="geometry" />
        </mxCell>
        <mxCell id="_K0BIjXZIAGodwV6w2R7-356" value="" style="shape=partialRectangle;collapsible=0;dropTarget=0;pointerEvents=0;fillColor=none;top=0;left=0;bottom=0;right=0;points=[[0,0.5],[1,0.5]];portConstraint=eastwest;" vertex="1" parent="_K0BIjXZIAGodwV6w2R7-349">
          <mxGeometry y="80" width="120" height="40" as="geometry" />
        </mxCell>
        <mxCell id="_K0BIjXZIAGodwV6w2R7-357" value="pink" style="shape=partialRectangle;html=1;whiteSpace=wrap;connectable=0;overflow=hidden;fillColor=none;top=0;left=0;bottom=0;right=0;pointerEvents=1;" vertex="1" parent="_K0BIjXZIAGodwV6w2R7-356">
          <mxGeometry width="60" height="40" as="geometry" />
        </mxCell>
        <mxCell id="_K0BIjXZIAGodwV6w2R7-358" value="0" style="shape=partialRectangle;html=1;whiteSpace=wrap;connectable=0;overflow=hidden;fillColor=none;top=0;left=0;bottom=0;right=0;pointerEvents=1;" vertex="1" parent="_K0BIjXZIAGodwV6w2R7-356">
          <mxGeometry x="60" width="60" height="40" as="geometry" />
        </mxCell>
        <mxCell id="_K0BIjXZIAGodwV6w2R7-359" style="shape=partialRectangle;collapsible=0;dropTarget=0;pointerEvents=0;fillColor=none;top=0;left=0;bottom=0;right=0;points=[[0,0.5],[1,0.5]];portConstraint=eastwest;" vertex="1" parent="_K0BIjXZIAGodwV6w2R7-349">
          <mxGeometry y="120" width="120" height="40" as="geometry" />
        </mxCell>
        <mxCell id="_K0BIjXZIAGodwV6w2R7-360" value="x,y" style="shape=partialRectangle;html=1;whiteSpace=wrap;connectable=0;overflow=hidden;fillColor=none;top=0;left=0;bottom=0;right=0;pointerEvents=1;" vertex="1" parent="_K0BIjXZIAGodwV6w2R7-359">
          <mxGeometry width="60" height="40" as="geometry" />
        </mxCell>
        <mxCell id="_K0BIjXZIAGodwV6w2R7-361" value="1" style="shape=partialRectangle;html=1;whiteSpace=wrap;connectable=0;overflow=hidden;fillColor=none;top=0;left=0;bottom=0;right=0;pointerEvents=1;" vertex="1" parent="_K0BIjXZIAGodwV6w2R7-359">
          <mxGeometry x="60" width="60" height="40" as="geometry" />
        </mxCell>
        <mxCell id="_K0BIjXZIAGodwV6w2R7-362" value="" style="shape=table;startSize=0;container=1;collapsible=0;childLayout=tableLayout;" vertex="1" parent="1">
          <mxGeometry x="520" y="2410" width="120" height="160" as="geometry" />
        </mxCell>
        <mxCell id="_K0BIjXZIAGodwV6w2R7-363" value="" style="shape=partialRectangle;collapsible=0;dropTarget=0;pointerEvents=0;fillColor=none;top=0;left=0;bottom=0;right=0;points=[[0,0.5],[1,0.5]];portConstraint=eastwest;" vertex="1" parent="_K0BIjXZIAGodwV6w2R7-362">
          <mxGeometry width="120" height="40" as="geometry" />
        </mxCell>
        <mxCell id="_K0BIjXZIAGodwV6w2R7-364" value="blue" style="shape=partialRectangle;html=1;whiteSpace=wrap;connectable=0;overflow=hidden;fillColor=none;top=0;left=0;bottom=0;right=0;pointerEvents=1;" vertex="1" parent="_K0BIjXZIAGodwV6w2R7-363">
          <mxGeometry width="60" height="40" as="geometry" />
        </mxCell>
        <mxCell id="_K0BIjXZIAGodwV6w2R7-365" value="2" style="shape=partialRectangle;html=1;whiteSpace=wrap;connectable=0;overflow=hidden;fillColor=none;top=0;left=0;bottom=0;right=0;pointerEvents=1;" vertex="1" parent="_K0BIjXZIAGodwV6w2R7-363">
          <mxGeometry x="60" width="60" height="40" as="geometry" />
        </mxCell>
        <mxCell id="_K0BIjXZIAGodwV6w2R7-366" value="" style="shape=partialRectangle;collapsible=0;dropTarget=0;pointerEvents=0;fillColor=none;top=0;left=0;bottom=0;right=0;points=[[0,0.5],[1,0.5]];portConstraint=eastwest;" vertex="1" parent="_K0BIjXZIAGodwV6w2R7-362">
          <mxGeometry y="40" width="120" height="40" as="geometry" />
        </mxCell>
        <mxCell id="_K0BIjXZIAGodwV6w2R7-367" value="green" style="shape=partialRectangle;html=1;whiteSpace=wrap;connectable=0;overflow=hidden;fillColor=none;top=0;left=0;bottom=0;right=0;pointerEvents=1;" vertex="1" parent="_K0BIjXZIAGodwV6w2R7-366">
          <mxGeometry width="60" height="40" as="geometry" />
        </mxCell>
        <mxCell id="_K0BIjXZIAGodwV6w2R7-368" value="0" style="shape=partialRectangle;html=1;whiteSpace=wrap;connectable=0;overflow=hidden;fillColor=none;top=0;left=0;bottom=0;right=0;pointerEvents=1;" vertex="1" parent="_K0BIjXZIAGodwV6w2R7-366">
          <mxGeometry x="60" width="60" height="40" as="geometry" />
        </mxCell>
        <mxCell id="_K0BIjXZIAGodwV6w2R7-369" value="" style="shape=partialRectangle;collapsible=0;dropTarget=0;pointerEvents=0;fillColor=none;top=0;left=0;bottom=0;right=0;points=[[0,0.5],[1,0.5]];portConstraint=eastwest;" vertex="1" parent="_K0BIjXZIAGodwV6w2R7-362">
          <mxGeometry y="80" width="120" height="40" as="geometry" />
        </mxCell>
        <mxCell id="_K0BIjXZIAGodwV6w2R7-370" value="pink" style="shape=partialRectangle;html=1;whiteSpace=wrap;connectable=0;overflow=hidden;fillColor=none;top=0;left=0;bottom=0;right=0;pointerEvents=1;" vertex="1" parent="_K0BIjXZIAGodwV6w2R7-369">
          <mxGeometry width="60" height="40" as="geometry" />
        </mxCell>
        <mxCell id="_K0BIjXZIAGodwV6w2R7-371" value="2" style="shape=partialRectangle;html=1;whiteSpace=wrap;connectable=0;overflow=hidden;fillColor=none;top=0;left=0;bottom=0;right=0;pointerEvents=1;" vertex="1" parent="_K0BIjXZIAGodwV6w2R7-369">
          <mxGeometry x="60" width="60" height="40" as="geometry" />
        </mxCell>
        <mxCell id="_K0BIjXZIAGodwV6w2R7-372" style="shape=partialRectangle;collapsible=0;dropTarget=0;pointerEvents=0;fillColor=none;top=0;left=0;bottom=0;right=0;points=[[0,0.5],[1,0.5]];portConstraint=eastwest;" vertex="1" parent="_K0BIjXZIAGodwV6w2R7-362">
          <mxGeometry y="120" width="120" height="40" as="geometry" />
        </mxCell>
        <mxCell id="_K0BIjXZIAGodwV6w2R7-373" value="x,y" style="shape=partialRectangle;html=1;whiteSpace=wrap;connectable=0;overflow=hidden;fillColor=none;top=0;left=0;bottom=0;right=0;pointerEvents=1;" vertex="1" parent="_K0BIjXZIAGodwV6w2R7-372">
          <mxGeometry width="60" height="40" as="geometry" />
        </mxCell>
        <mxCell id="_K0BIjXZIAGodwV6w2R7-374" value="1" style="shape=partialRectangle;html=1;whiteSpace=wrap;connectable=0;overflow=hidden;fillColor=none;top=0;left=0;bottom=0;right=0;pointerEvents=1;" vertex="1" parent="_K0BIjXZIAGodwV6w2R7-372">
          <mxGeometry x="60" width="60" height="40" as="geometry" />
        </mxCell>
        <mxCell id="_K0BIjXZIAGodwV6w2R7-375" value="" style="rounded=0;whiteSpace=wrap;html=1;shadow=0;sketch=0;glass=0;fillColor=none;" vertex="1" parent="1">
          <mxGeometry y="2080" width="700" height="520" as="geometry" />
        </mxCell>
      </root>
    </mxGraphModel>
  </diagram>
</mxfile>
